<svg width="484" height="347" viewBox="0 0 484 347" fill="none" xmlns="http://www.w3.org/2000/svg">
<g clip-path="url(#clip0_323_650)">
<path d="M248.001 20.0015H143.313C141.732 20.0015 140.449 21.2888 140.449 22.8767V84.0809C140.449 85.6689 141.732 86.9562 143.313 86.9562H248.001C249.583 86.9562 250.865 85.6689 250.865 84.0809V22.8767C250.865 21.2888 249.583 20.0015 248.001 20.0015Z" stroke="#C0CCD8" stroke-miterlimit="10"/>
<path d="M140.449 32.1294H250.865" stroke="#C0CCD8" stroke-miterlimit="10"/>
<path d="M147.578 27.9103C148.554 27.9103 149.345 27.1163 149.345 26.1368C149.345 25.1573 148.554 24.3633 147.578 24.3633C146.602 24.3633 145.812 25.1573 145.812 26.1368C145.812 27.1163 146.602 27.9103 147.578 27.9103Z" stroke="#C0CCD8" stroke-miterlimit="10"/>
<path d="M156.598 26.1279C156.598 26.4822 156.494 26.8285 156.298 27.1231C156.101 27.4177 155.823 27.6473 155.497 27.7829C155.171 27.9185 154.812 27.954 154.466 27.8849C154.119 27.8157 153.802 27.6451 153.552 27.3946C153.302 27.1441 153.132 26.8249 153.064 26.4773C152.995 26.1298 153.03 25.7696 153.165 25.4423C153.3 25.115 153.529 24.8352 153.822 24.6383C154.116 24.4415 154.461 24.3364 154.814 24.3364C155.287 24.3364 155.741 24.5252 156.076 24.8611C156.41 25.1971 156.598 25.6527 156.598 26.1279Z" stroke="#C0CCD8" stroke-miterlimit="10"/>
<path d="M163.861 26.1279C163.861 26.4822 163.756 26.8285 163.56 27.1231C163.364 27.4177 163.085 27.6473 162.759 27.7829C162.433 27.9185 162.075 27.954 161.728 27.8849C161.382 27.8157 161.064 27.6451 160.815 27.3946C160.565 27.1441 160.395 26.8249 160.326 26.4773C160.257 26.1298 160.293 25.7696 160.428 25.4423C160.563 25.115 160.792 24.8352 161.085 24.6383C161.379 24.4415 161.724 24.3364 162.076 24.3364C162.55 24.3364 163.004 24.5252 163.338 24.8611C163.673 25.1971 163.861 25.6527 163.861 26.1279Z" stroke="#C0CCD8" stroke-miterlimit="10"/>
<path d="M108.632 58.5796H82.5244C80.0014 58.5796 77.9561 60.6328 77.9561 63.1656V89.3743C77.9561 91.9071 80.0014 93.9603 82.5244 93.9603H108.632C111.155 93.9603 113.2 91.9071 113.2 89.3743V63.1656C113.2 60.6328 111.155 58.5796 108.632 58.5796Z" stroke="#C0CCD8" stroke-linejoin="round"/>
<path d="M95.5777 86.4007C101.151 86.4007 105.669 81.8651 105.669 76.2702C105.669 70.6752 101.151 66.1396 95.5777 66.1396C90.0044 66.1396 85.4863 70.6752 85.4863 76.2702C85.4863 81.8651 90.0044 86.4007 95.5777 86.4007Z" stroke="#C0CCD8" stroke-width="3" stroke-miterlimit="10"/>
<path d="M102.395 69.1133L88.1367 83.4178" stroke="#C0CCD8" stroke-width="3" stroke-miterlimit="10"/>
<path d="M346.861 85.9079L339.554 78.3033H227.086C225.834 78.3033 224.595 78.0559 223.439 77.5751C222.283 77.0944 221.233 76.3897 220.348 75.5014C219.463 74.6131 218.761 73.5585 218.282 72.3979C217.803 71.2373 217.557 69.9933 217.557 68.7371V10.014C217.557 7.47687 218.561 5.04366 220.348 3.24964C222.135 1.45562 224.559 0.447754 227.086 0.447754H340.053C342.581 0.447754 345.004 1.45562 346.792 3.24964C348.579 5.04366 349.583 7.47687 349.583 10.014V84.8062C349.584 85.1234 349.49 85.4338 349.314 85.6971C349.138 85.9604 348.887 86.1646 348.594 86.2833C348.301 86.4019 347.979 86.4296 347.67 86.3627C347.361 86.2958 347.079 86.1373 346.861 85.9079Z" fill="white" stroke="#C0CCD8" stroke-linejoin="round"/>
<path d="M262.776 52.05H257.931V60.5951H246.171V52.05H228.647V43.2988L246.93 16.4722H257.895V43.1466H262.776V52.05ZM246.207 43.1466V38.0141C246.207 37.0557 246.207 35.748 246.314 34.1088C246.323 33.2464 246.38 32.3852 246.484 31.5291H246.153C245.493 33.0353 244.718 34.4878 243.834 35.8734L238.962 43.1466H246.207Z" fill="#F76652"/>
<path d="M299.358 38.5876C299.358 46.3982 298.056 52.1189 295.45 55.7495C292.845 59.3801 288.857 61.1954 283.485 61.1954C278.227 61.1954 274.268 59.2995 271.61 55.5076C268.951 51.7158 267.618 46.0758 267.612 38.5876C267.612 30.7411 268.915 24.9876 271.52 21.3272C274.126 17.6667 278.114 15.8364 283.485 15.8364C288.714 15.8364 292.667 17.7443 295.343 21.56C298.02 25.3758 299.358 31.0516 299.358 38.5876ZM279.426 38.5876C279.426 43.5857 279.738 47.0073 280.318 48.8794C280.898 50.7514 281.986 51.6919 283.45 51.6919C284.913 51.6919 285.975 50.7245 286.59 48.7898C287.206 46.855 287.483 43.4155 287.483 38.5876C287.483 33.7597 287.17 30.2754 286.59 28.3137C286.01 26.3521 284.931 25.3758 283.468 25.3758C282.004 25.3758 280.96 26.2715 280.336 28.2062C279.711 30.141 279.435 33.5626 279.435 38.5876H279.426Z" fill="#F76652"/>
<path d="M338.456 52.05H333.611V60.5951H321.887V52.05H304.363V43.2988L322.645 16.4722H333.611V43.1466H338.456V52.05ZM321.887 43.1466V38.0141C321.887 37.0557 321.887 35.748 321.994 34.1088C322.003 33.2464 322.06 32.3852 322.164 31.5291H321.834C321.173 33.0353 320.398 34.4878 319.514 35.8734L314.642 43.1466H321.887Z" fill="#F76652"/>
<path d="M478.976 161.596H452.869C450.346 161.596 448.301 163.649 448.301 166.182V192.391C448.301 194.924 450.346 196.977 452.869 196.977H478.976C481.499 196.977 483.545 194.924 483.545 192.391V166.182C483.545 163.649 481.499 161.596 478.976 161.596Z" stroke="#C0CCD8" stroke-linejoin="round"/>
<path d="M477.282 189.22C477.147 189.266 477.005 189.29 476.863 189.292H454.985C454.76 189.29 454.539 189.23 454.344 189.116C454.15 189.003 453.989 188.84 453.877 188.644C453.765 188.448 453.706 188.226 453.706 188C453.706 187.774 453.766 187.552 453.878 187.357L464.808 168.341C464.919 168.144 465.08 167.981 465.274 167.868C465.469 167.754 465.69 167.695 465.915 167.696C466.139 167.696 466.36 167.755 466.556 167.866C466.751 167.978 466.914 168.138 467.03 168.332L477.969 187.348C478.064 187.512 478.121 187.695 478.137 187.884C478.153 188.073 478.127 188.264 478.062 188.442C477.996 188.619 477.892 188.781 477.757 188.914C477.623 189.047 477.46 189.148 477.282 189.211V189.22ZM455.591 187.661H476.256L465.915 169.693L455.591 187.661Z" fill="#C0CCD8"/>
<path d="M465.923 183.881C465.722 183.884 465.529 183.808 465.384 183.669C465.239 183.53 465.153 183.339 465.147 183.138L464.7 175.659C464.693 175.494 464.719 175.329 464.777 175.175C464.834 175.02 464.923 174.879 465.036 174.759C465.149 174.64 465.285 174.544 465.436 174.479C465.587 174.413 465.749 174.379 465.914 174.378C466.078 174.378 466.241 174.411 466.392 174.475C466.543 174.54 466.68 174.634 466.794 174.753C466.908 174.872 466.998 175.012 467.056 175.166C467.115 175.321 467.142 175.485 467.136 175.65L466.69 183.138C466.683 183.338 466.599 183.527 466.456 183.665C466.313 183.804 466.122 183.882 465.923 183.881Z" fill="#C0CCD8"/>
<path d="M466.708 185.691C466.706 185.846 466.659 185.998 466.571 186.126C466.484 186.255 466.361 186.354 466.217 186.413C466.074 186.471 465.916 186.485 465.764 186.454C465.613 186.422 465.473 186.347 465.365 186.236C465.256 186.125 465.182 185.985 465.152 185.832C465.123 185.68 465.139 185.522 465.198 185.378C465.258 185.235 465.359 185.112 465.488 185.026C465.616 184.94 465.768 184.894 465.923 184.894C466.027 184.894 466.13 184.914 466.225 184.954C466.321 184.995 466.408 185.053 466.481 185.128C466.554 185.202 466.612 185.29 466.651 185.386C466.69 185.483 466.709 185.586 466.708 185.691Z" fill="#C0CCD8"/>
<path d="M4.41693 133.748C4.41693 134.143 4.30023 134.53 4.0816 134.858C3.86297 135.187 3.55222 135.443 3.18864 135.594C2.82507 135.745 2.42501 135.785 2.03904 135.707C1.65307 135.63 1.29854 135.44 1.02027 135.161C0.742004 134.881 0.552506 134.526 0.475733 134.138C0.398959 133.751 0.438362 133.349 0.588959 132.984C0.739555 132.619 0.99458 132.307 1.32179 132.088C1.64899 131.868 2.03368 131.751 2.42721 131.751C2.95492 131.751 3.46101 131.961 3.83415 132.336C4.2073 132.711 4.41693 133.219 4.41693 133.748V133.748Z" stroke="#C0CCD8" stroke-linecap="round" stroke-linejoin="round"/>
<path d="M338.456 240.168C338.458 240.564 338.343 240.951 338.125 241.28C337.907 241.61 337.597 241.867 337.234 242.02C336.871 242.173 336.47 242.213 336.084 242.137C335.697 242.061 335.342 241.872 335.063 241.593C334.783 241.314 334.593 240.958 334.515 240.57C334.438 240.182 334.477 239.78 334.627 239.415C334.778 239.049 335.033 238.737 335.36 238.517C335.687 238.297 336.072 238.18 336.466 238.18C336.992 238.18 337.497 238.389 337.87 238.762C338.243 239.134 338.454 239.64 338.456 240.168V240.168Z" stroke="#C0CCD8" stroke-linecap="round" stroke-linejoin="round"/>
<path d="M475.077 76.2614C475.079 76.6569 474.964 77.0439 474.746 77.3736C474.529 77.7032 474.218 77.9607 473.855 78.1132C473.492 78.2658 473.091 78.3066 472.705 78.2305C472.318 78.1545 471.963 77.965 471.684 77.686C471.404 77.407 471.214 77.0511 471.137 76.6634C471.059 76.2757 471.098 75.8736 471.248 75.5081C471.399 75.1426 471.654 74.8301 471.981 74.6102C472.308 74.3903 472.693 74.273 473.087 74.2729C473.614 74.2729 474.118 74.4822 474.491 74.8548C474.864 75.2275 475.075 75.7332 475.077 76.2614V76.2614Z" stroke="#C0CCD8" stroke-linecap="round" stroke-linejoin="round"/>
<path d="M367.758 14.5285C367.759 14.924 367.644 15.311 367.427 15.6407C367.209 15.9703 366.899 16.2277 366.536 16.3803C366.172 16.5329 365.772 16.5737 365.385 16.4976C364.999 16.4216 364.643 16.232 364.364 15.9531C364.085 15.6741 363.895 15.3182 363.817 14.9305C363.74 14.5428 363.779 14.1407 363.929 13.7752C364.079 13.4097 364.334 13.0972 364.662 12.8773C364.989 12.6574 365.374 12.54 365.768 12.54C366.294 12.54 366.799 12.7492 367.172 13.1219C367.545 13.4946 367.755 14.0003 367.758 14.5285Z" stroke="#C0CCD8" stroke-linecap="round" stroke-linejoin="round"/>
<path d="M471.107 141.55V147.73" stroke="#C0CCD8" stroke-linecap="round" stroke-linejoin="round"/>
<path d="M474.185 144.64H468.028" stroke="#C0CCD8" stroke-linecap="round" stroke-linejoin="round"/>
<path d="M310.163 260.617V266.798" stroke="#C0CCD8" stroke-linecap="round" stroke-linejoin="round"/>
<path d="M313.242 263.708H307.076" stroke="#C0CCD8" stroke-linecap="round" stroke-linejoin="round"/>
<path d="M179.948 3.13477V9.3152" stroke="#C0CCD8" stroke-linecap="round" stroke-linejoin="round"/>
<path d="M183.027 6.2251H176.87" stroke="#C0CCD8" stroke-linecap="round" stroke-linejoin="round"/>
<path d="M42.123 62.8794V69.0598" stroke="#C0CCD8" stroke-linecap="round" stroke-linejoin="round"/>
<path d="M45.2014 65.9692H39.0449" stroke="#C0CCD8" stroke-linecap="round" stroke-linejoin="round"/>
<path d="M32.1025 205.182V211.362" stroke="#C0CCD8" stroke-linecap="round" stroke-linejoin="round"/>
<path d="M35.1809 208.271H29.0244" stroke="#C0CCD8" stroke-linecap="round" stroke-linejoin="round"/>
<path d="M381.106 38.1309V44.3113" stroke="#C0CCD8" stroke-linecap="round" stroke-linejoin="round"/>
<path d="M384.184 41.2207H378.027" stroke="#C0CCD8" stroke-linecap="round" stroke-linejoin="round"/>
<path d="M77.9025 170.025H16.2928C15.7776 170.022 15.2842 169.816 14.92 169.45C14.5557 169.084 14.35 168.589 14.3477 168.072C14.3477 167.553 14.5523 167.056 14.9168 166.688C15.2813 166.32 15.7761 166.113 16.2928 166.11H77.9025C78.4207 166.11 78.9177 166.317 79.2842 166.685C79.6506 167.053 79.8565 167.552 79.8565 168.072C79.8542 168.591 79.6472 169.087 79.281 169.453C78.9148 169.819 78.4192 170.025 77.9025 170.025V170.025Z" stroke="#C0CCD8" stroke-miterlimit="10"/>
<path d="M440.664 120.599H379.099C378.582 120.599 378.086 120.393 377.72 120.027C377.354 119.662 377.147 119.165 377.145 118.646C377.145 118.389 377.195 118.134 377.293 117.896C377.391 117.658 377.535 117.441 377.717 117.259C377.898 117.077 378.114 116.932 378.351 116.834C378.588 116.735 378.842 116.685 379.099 116.685H440.664C441.18 116.687 441.675 116.895 442.04 117.262C442.404 117.63 442.609 118.127 442.609 118.646V118.646C442.606 119.163 442.401 119.659 442.036 120.024C441.672 120.39 441.179 120.597 440.664 120.599V120.599Z" stroke="#C0CCD8" stroke-miterlimit="10"/>
<path d="M449.676 133.748H426.95C426.692 133.748 426.445 133.645 426.262 133.462C426.08 133.279 425.978 133.031 425.978 132.772C425.978 132.513 426.08 132.264 426.262 132.081C426.445 131.898 426.692 131.795 426.95 131.795H449.72C449.849 131.794 449.976 131.819 450.095 131.867C450.214 131.916 450.322 131.987 450.414 132.078C450.505 132.169 450.577 132.277 450.627 132.396C450.676 132.515 450.702 132.643 450.702 132.772C450.702 132.905 450.675 133.036 450.623 133.158C450.571 133.28 450.494 133.39 450.398 133.482C450.302 133.573 450.189 133.644 450.064 133.69C449.94 133.736 449.808 133.755 449.676 133.748Z" fill="#C0CCD8"/>
<path d="M389.413 87.1442H366.634C366.505 87.1442 366.378 87.1187 366.259 87.0691C366.141 87.0194 366.033 86.9467 365.943 86.8551C365.852 86.7635 365.781 86.6548 365.733 86.5353C365.684 86.4158 365.66 86.2879 365.661 86.1589C365.661 85.9 365.764 85.6517 365.946 85.4686C366.128 85.2855 366.376 85.1826 366.634 85.1826H389.413C389.671 85.1826 389.918 85.2855 390.101 85.4686C390.283 85.6517 390.385 85.9 390.385 86.1589C390.387 86.2879 390.362 86.4158 390.314 86.5353C390.266 86.6548 390.194 86.7635 390.104 86.8551C390.013 86.9467 389.906 87.0194 389.787 87.0691C389.668 87.1187 389.541 87.1442 389.413 87.1442Z" fill="#C0CCD8"/>
<path d="M55.0066 152.701H37.581C37.4525 152.701 37.3253 152.676 37.2067 152.626C37.0882 152.577 36.9805 152.504 36.8901 152.412C36.7997 152.321 36.7282 152.212 36.6799 152.092C36.6315 151.973 36.6073 151.845 36.6084 151.716C36.6084 151.457 36.7109 151.209 36.8933 151.026C37.0757 150.843 37.3231 150.74 37.581 150.74H55.0066C55.2645 150.74 55.5119 150.843 55.6943 151.026C55.8767 151.209 55.9791 151.457 55.9791 151.716C55.9803 151.845 55.956 151.973 55.9077 152.092C55.8593 152.212 55.7879 152.321 55.6975 152.412C55.607 152.504 55.4994 152.577 55.3808 152.626C55.2623 152.676 55.1351 152.701 55.0066 152.701Z" fill="#C0CCD8"/>
<path d="M406.651 66.3813H425.513C427.336 66.3813 428.814 64.8976 428.814 63.0672V44.1318C428.814 42.3014 427.336 40.8176 425.513 40.8176H406.651C404.828 40.8176 403.35 42.3014 403.35 44.1318V63.0672C403.35 64.8976 404.828 66.3813 406.651 66.3813Z" stroke="#C0CCD8" stroke-linejoin="round"/>
<path d="M419.687 52.5157L419.249 54.7102H421.676V56.6539H418.919L418.196 60.4965H416.126L416.858 56.6539H414.181L413.459 60.4965H411.433L412.129 56.6539H409.89V54.7102H412.504L412.941 52.5157H410.568V50.5361H413.245L413.976 46.6846H416.037L415.315 50.5361H417.991L418.732 46.6846H420.757L420.017 50.5361H422.283V52.5157H419.687ZM414.503 54.7102H417.179L417.625 52.5157H414.949L414.503 54.7102Z" fill="#C0CCD8"/>
<path d="M201.657 243.222L183.767 125.445H103.197L122.514 250.245C123.118 254.303 125.17 258.002 128.289 260.654C131.408 263.305 135.381 264.728 139.467 264.657H274.991L275.981 253.228H213.417C210.58 253.282 207.82 252.296 205.655 250.454C203.49 248.612 202.069 246.041 201.657 243.222Z" fill="#475577"/>
<path d="M125.37 243.223L108.177 129.798C107.996 128.57 107.376 127.45 106.431 126.648C105.486 125.846 104.283 125.419 103.046 125.445H102.895C102.018 125.456 101.153 125.653 100.357 126.021C99.5611 126.39 98.8512 126.923 98.2739 127.586C97.6965 128.248 97.2645 129.025 97.0061 129.866C96.7476 130.707 96.6684 131.594 96.7737 132.467L115.002 250.245C115.607 254.311 117.665 258.016 120.794 260.669C123.922 263.321 127.906 264.739 132 264.657H219.253L220.252 253.228H137.166C134.322 253.293 131.553 252.311 129.38 250.468C127.207 248.625 125.781 246.048 125.37 243.223Z" fill="#717A91"/>
<path d="M179.948 264.666V328.951" stroke="#544943" stroke-width="1.5" stroke-miterlimit="10"/>
<path d="M144.044 334.63C144.044 333.124 144.64 331.679 145.701 330.614C146.762 329.549 148.201 328.951 149.701 328.951H210.186C211.687 328.951 213.125 329.549 214.186 330.614C215.247 331.679 215.843 333.124 215.843 334.63" stroke="#544943" stroke-width="1.5" stroke-miterlimit="10"/>
<path d="M173.756 334.63C173.756 333.124 174.352 331.679 175.413 330.614C176.474 329.549 177.912 328.951 179.413 328.951" stroke="#544943" stroke-width="1.5" stroke-miterlimit="10"/>
<path d="M149.755 340.363C149.757 341.499 149.423 342.611 148.795 343.556C148.167 344.502 147.274 345.239 146.229 345.675C145.183 346.11 144.032 346.225 142.922 346.004C141.812 345.782 140.792 345.235 139.992 344.432C139.191 343.628 138.646 342.604 138.426 341.49C138.205 340.375 138.319 339.22 138.753 338.171C139.187 337.121 139.922 336.224 140.864 335.594C141.806 334.964 142.913 334.629 144.045 334.63C145.559 334.63 147.012 335.234 148.082 336.309C149.153 337.385 149.755 338.843 149.755 340.363Z" fill="#717A91"/>
<g opacity="0.45">
<path opacity="0.45" d="M146.141 340.363C146.143 340.782 146.021 341.192 145.79 341.541C145.559 341.89 145.23 342.162 144.845 342.323C144.46 342.484 144.036 342.527 143.627 342.445C143.217 342.364 142.841 342.163 142.546 341.866C142.251 341.57 142.051 341.193 141.97 340.782C141.889 340.371 141.931 339.945 142.092 339.559C142.252 339.172 142.523 338.842 142.871 338.61C143.219 338.379 143.627 338.256 144.044 338.258C144.6 338.258 145.134 338.48 145.527 338.874C145.92 339.269 146.141 339.805 146.141 340.363Z" fill="#8E9DB2"/>
</g>
<path d="M179.467 340.363C179.469 341.499 179.135 342.611 178.507 343.556C177.879 344.502 176.986 345.239 175.94 345.675C174.895 346.11 173.744 346.225 172.634 346.004C171.524 345.782 170.504 345.235 169.703 344.432C168.903 343.628 168.358 342.604 168.138 341.49C167.917 340.375 168.031 339.22 168.465 338.171C168.899 337.121 169.634 336.224 170.576 335.594C171.518 334.964 172.625 334.629 173.757 334.63C175.271 334.63 176.723 335.234 177.794 336.309C178.865 337.385 179.467 338.843 179.467 340.363Z" fill="#717A91"/>
<g opacity="0.45">
<path opacity="0.45" d="M175.853 340.363C175.855 340.782 175.733 341.192 175.502 341.541C175.271 341.89 174.942 342.162 174.557 342.323C174.172 342.484 173.748 342.527 173.339 342.445C172.929 342.364 172.553 342.163 172.258 341.866C171.963 341.57 171.763 341.193 171.682 340.782C171.601 340.371 171.643 339.945 171.804 339.559C171.964 339.172 172.235 338.842 172.583 338.61C172.931 338.379 173.339 338.256 173.756 338.258C174.312 338.258 174.846 338.48 175.239 338.874C175.632 339.269 175.853 339.805 175.853 340.363Z" fill="#8E9DB2"/>
</g>
<path d="M221.555 340.363C221.555 341.497 221.22 342.605 220.592 343.548C219.965 344.491 219.073 345.225 218.029 345.659C216.986 346.093 215.838 346.207 214.73 345.985C213.622 345.764 212.605 345.218 211.806 344.417C211.008 343.615 210.464 342.593 210.244 341.481C210.023 340.369 210.136 339.217 210.568 338.169C211.001 337.122 211.733 336.226 212.672 335.597C213.611 334.967 214.715 334.63 215.844 334.63C217.359 334.63 218.811 335.234 219.882 336.309C220.953 337.384 221.555 338.843 221.555 340.363Z" fill="#717A91"/>
<g opacity="0.45">
<path opacity="0.45" d="M217.941 340.363C217.941 340.779 217.818 341.186 217.587 341.532C217.357 341.878 217.029 342.148 216.646 342.307C216.263 342.467 215.842 342.508 215.435 342.427C215.028 342.346 214.654 342.145 214.361 341.851C214.068 341.557 213.868 341.182 213.787 340.773C213.706 340.365 213.748 339.942 213.907 339.557C214.065 339.173 214.334 338.844 214.679 338.613C215.024 338.381 215.429 338.258 215.844 338.258C216.4 338.258 216.933 338.48 217.327 338.874C217.72 339.269 217.941 339.804 217.941 340.363Z" fill="#8E9DB2"/>
</g>
<path d="M242.914 138.084L263.329 107.459L269.664 108.776C264.828 125.131 261.633 131.599 261.633 131.599" fill="#FFCBBB"/>
<path d="M266.407 113.855L269.664 108.776C269.664 108.776 275.722 107.379 277.917 106.25C279.884 105.224 281.408 103.509 282.2 101.431C282.673 100.141 282.467 96.3344 281.914 96.2717C280.612 96.1283 278.015 101.001 276.802 101.297C275.588 101.592 271.636 101.297 269.467 101.565C268.355 101.759 267.305 102.215 266.402 102.895C265.499 103.576 264.77 104.461 264.275 105.48L260.938 111.562" fill="#FFCBBB"/>
<path d="M256.263 116.425L259.85 111.212L269.12 115.386L266.176 123.313" fill="#E6E8EF"/>
<path d="M181.751 105.533C181.751 105.533 196.875 98.5466 210.196 110.442C223.517 122.337 232.502 133.39 237.409 136.964L257.476 113.792L268.683 119.076C265.729 135.853 257.431 162.617 237.142 165.376C215.183 168.35 182.982 141.192 182.982 141.192" fill="#B9B5B2"/>
<path d="M230.905 144.64L237.419 136.937" stroke="#846A6A" stroke-miterlimit="10"/>
<path d="M262.981 336.413L261.286 342.951C261.189 343.322 261.178 343.711 261.254 344.087C261.33 344.463 261.491 344.816 261.725 345.12C261.958 345.424 262.258 345.669 262.601 345.839C262.944 346.008 263.322 346.095 263.704 346.095H283.458C284.028 346.095 284.575 345.868 284.979 345.463C285.382 345.058 285.608 344.509 285.608 343.937C285.608 343.478 285.462 343.032 285.193 342.662C284.924 342.292 284.544 342.017 284.109 341.876L270.61 336.413" fill="#173789"/>
<path d="M251.596 234.176C248.438 267.452 262.981 336.413 262.981 336.413C262.981 336.413 266.434 340.605 270.61 336.413C270.61 336.413 274.117 270.658 277.802 241.1" fill="#FFCBBB"/>
<path d="M204.468 195.194L227.14 207.134V207.367C227.14 207.367 273.403 204.25 280.398 220.803C291.328 246.796 293.219 331.253 293.219 331.253H259.359C259.359 331.253 246.76 260.322 242.451 256.013C238.141 251.705 220.376 252.001 187.702 252.001C151.004 252.001 168.92 204.528 182.581 200.425" fill="#FCA32D"/>
<path d="M261.706 331.254C261.706 331.254 251.641 258.056 244.244 252.69C235.215 246.134 192.574 250.415 192.574 250.415" stroke="#CE680D" stroke-miterlimit="10"/>
<path d="M191.976 336.413L190.281 342.951C190.184 343.322 190.173 343.711 190.249 344.087C190.325 344.463 190.486 344.816 190.72 345.12C190.954 345.424 191.253 345.669 191.597 345.839C191.94 346.008 192.317 346.095 192.699 346.095H212.453C213.024 346.095 213.57 345.868 213.974 345.463C214.377 345.058 214.604 344.509 214.604 343.937C214.603 343.478 214.457 343.032 214.188 342.662C213.919 342.292 213.539 342.017 213.105 341.876L199.605 336.413" fill="#173789"/>
<path d="M195.259 234.176C192.109 267.452 191.976 336.413 191.976 336.413C191.976 336.413 195.429 340.605 199.604 336.413C199.604 336.413 211.489 270.658 215.183 241.1" fill="#FFCBBB"/>
<path d="M164.477 205.647C164.477 205.647 223.955 206.605 231.726 224.699C241.3 246.94 225.525 331.289 225.525 331.289H189.683V255.87C189.695 255.163 189.43 254.48 188.944 253.969C188.458 253.458 187.791 253.159 187.087 253.138C182.126 253.272 171.026 253.272 156.982 253.272C120.284 253.272 138.201 195.946 151.861 191.853" fill="#FFB548"/>
<path d="M164.477 205.647C164.477 205.647 223.954 206.606 231.725 224.699C234.322 230.728 235.669 240.992 234.973 253.228" stroke="#CE680D" stroke-miterlimit="10"/>
<path d="M194.68 331.253C194.68 331.253 195.046 255.547 193.315 251.535C190.906 245.918 182.688 248.677 163.621 248.677C126.922 248.677 141.877 195.937 155.537 191.853" stroke="#ED841B" stroke-miterlimit="10"/>
<path d="M141.636 214.864C141.636 214.864 160.471 215.321 163.326 212.455C166.181 209.588 163.326 196.601 163.326 196.601" stroke="#ED841B" stroke-miterlimit="10"/>
<path d="M141.172 217.399C141.172 217.399 162.684 217.865 165.941 214.989C169.197 212.114 165.941 199.108 165.941 199.108" stroke="#ED841B" stroke-miterlimit="10" stroke-dasharray="3 2"/>
<path d="M137.54 126.842C137.54 126.842 133.025 207.367 139.86 207.367C146.694 207.367 222.687 207.134 227.139 207.134C231.592 207.134 221.17 138.272 206.163 123.725C206.163 123.725 183.901 99.4782 174.086 101.798C164.272 104.118 137.54 126.842 137.54 126.842Z" fill="#B9B5B2"/>
<path d="M222.322 163.468L212.882 124.639" stroke="#846A6A" stroke-miterlimit="10"/>
<path d="M99.1021 141.424L78.6786 110.8L72.3525 112.117C77.1885 128.463 80.3828 134.939 80.3828 134.939" fill="#FFCBBB"/>
<path d="M75.6091 117.178L72.3524 112.108C72.3524 112.108 66.2941 110.711 64.0902 109.582C62.1253 108.553 60.6023 106.84 59.8074 104.763C59.3345 103.473 59.5398 99.6664 60.093 99.6037C61.3956 99.4604 63.9921 104.333 65.2055 104.629C66.419 104.924 70.3716 104.629 72.5398 104.897C73.652 105.091 74.7026 105.547 75.6053 106.227C76.508 106.908 77.2371 107.793 77.7327 108.812L81.0697 114.894" fill="#FFCBBB"/>
<path d="M85.7538 119.766L82.1669 114.553L72.8965 118.727L75.8409 126.654" fill="#E6E8EF"/>
<path d="M165.62 105.963C165.62 105.963 150.674 95.3039 135.283 108.399C120.9 120.608 111.317 145.249 108.105 145.249C105.866 145.249 92.0449 127.541 83.7737 116.694L73.959 121.969C80.1512 140.95 93.6598 173.24 113.86 173.24C129.707 173.24 162.256 135.969 162.256 135.969" fill="#B9B5B2"/>
<path d="M136.237 161.318L160.328 141.156" stroke="#846A6A" stroke-miterlimit="10"/>
<path d="M167.064 107.871L181.421 123.313L183.303 105.461" fill="#E6E8EF"/>
<path d="M167.064 107.871L181.421 123.313L183.303 105.461" stroke="#846A6A" stroke-linejoin="round"/>
<path d="M178.593 92.2767L182.635 101.162C182.635 101.162 184.258 106.259 177.522 108.561C175.499 109.324 173.3 109.485 171.189 109.024C169.078 108.563 167.144 107.5 165.619 105.963L164.558 92.0259" fill="#FFCBBB"/>
<path d="M165.236 100.884C165.236 100.884 170.544 107.575 177.522 108.561L172.454 116.111C168.35 113.792 163.326 104.781 163.326 104.781L165.236 100.884Z" fill="white"/>
<path d="M182.206 99.9438C181.474 103.198 179.852 106.182 177.521 108.561L183.294 112.941C184.624 109.662 184.472 104.557 184.472 104.557L182.206 99.9438Z" fill="white"/>
<path d="M184.579 77.9274C184.579 77.9274 188.389 92.5813 182.661 96.2895C176.933 99.9978 166.984 94.3548 166.404 92.5186C165.824 90.6824 163.237 75.0342 166.966 73.8519C173.605 71.7738 182.625 71.6753 184.579 77.9274Z" fill="#FFCBBB"/>
<path d="M184.454 82.6833C184.489 82.8285 184.481 82.9809 184.43 83.1212C184.378 83.2614 184.287 83.3832 184.166 83.471C184.046 83.5588 183.902 83.6086 183.753 83.614C183.605 83.6194 183.458 83.5803 183.331 83.5016C183.205 83.4228 183.104 83.3081 183.043 83.1719C182.982 83.0357 182.962 82.8843 182.987 82.737C183.012 82.5897 183.08 82.453 183.182 82.3446C183.284 82.2361 183.417 82.1607 183.562 82.128C183.657 82.1054 183.755 82.1018 183.851 82.1175C183.948 82.1332 184.04 82.1679 184.123 82.2195C184.206 82.2711 184.278 82.3386 184.335 82.4182C184.391 82.4978 184.432 82.5879 184.454 82.6833Z" fill="#173789"/>
<path d="M183.179 78.3123C183.428 78.3123 184.553 78.4646 184.312 79.0199C184.205 79.2707 183.812 79.2618 183.598 79.2528C183.375 79.2035 183.143 79.2035 182.92 79.2528C182.983 79.32 183.031 79.3992 183.063 79.4857C183.134 79.6469 182.581 79.6649 182.518 79.6649C181.87 79.5709 181.208 79.6937 180.636 80.0142C180.812 79.4879 181.158 79.0354 181.618 78.7274C182.078 78.4194 182.627 78.2734 183.179 78.3123Z" fill="#173789"/>
<path d="M175.273 84.708C175.281 84.8569 175.332 85.0003 175.421 85.1199C175.509 85.2395 175.631 85.33 175.771 85.3799C175.911 85.4298 176.063 85.4368 176.207 85.4001C176.351 85.3633 176.48 85.2844 176.58 85.1735C176.679 85.0625 176.743 84.9245 176.764 84.7769C176.785 84.6293 176.762 84.4788 176.697 84.3444C176.633 84.2101 176.53 84.098 176.402 84.0224C176.274 83.9468 176.127 83.911 175.978 83.9197C175.781 83.9313 175.596 84.0206 175.464 84.1682C175.332 84.3159 175.264 84.5098 175.273 84.708Z" fill="#173789"/>
<path d="M173.07 81.7517C172.534 82.0383 172.088 82.4325 172.177 82.8803C172.267 83.3282 172.624 83.149 172.847 82.9699C173.211 82.6806 173.625 82.4619 174.069 82.325C173.97 82.4056 173.891 82.5083 173.838 82.6249C173.786 82.7415 173.761 82.8688 173.766 82.9967C174.462 82.9085 175.109 82.592 175.608 82.0964C176.106 81.6008 176.428 80.9538 176.523 80.2559C176.204 80.5353 175.854 80.7758 175.479 80.9724C174.72 81.3486 173.855 81.3486 173.07 81.7517Z" fill="#173789"/>
<path d="M180.742 83.5522C180.742 83.5522 182.777 88.7026 182.054 89.1505C181.331 89.5983 178.771 89.5266 178.771 89.5266" stroke="#EF977F" stroke-miterlimit="10"/>
<path d="M180.823 97.1401C179 97.764 177.053 97.927 175.152 97.6145C173.252 97.302 171.458 96.5237 169.929 95.3486" stroke="#EF977F" stroke-miterlimit="10"/>
<path d="M177.521 93.7007C177.521 93.7007 178.039 91.4346 181.751 91.4346" stroke="#EF977F" stroke-miterlimit="10"/>
<path d="M187.827 70.0628C187.836 69.3582 187.61 68.671 187.185 68.1102C186.88 67.8513 186.526 67.6562 186.144 67.5362C185.763 67.4162 185.361 67.3738 184.963 67.4115C182.141 67.3911 179.384 68.2725 177.094 69.9285L178.958 68.2982C179.458 67.8683 180.556 67.1876 180.029 66.3814C179.503 65.5753 178.245 66.0769 177.549 66.0679C174.355 66.0679 171.303 67.1786 168.332 68.3072C166.864 68.8196 165.45 69.4766 164.111 70.2688C162.766 71.0688 161.686 72.2498 161.006 73.6636C160.505 74.939 160.28 76.3069 160.346 77.6764C160.425 80.132 160.688 82.5782 161.131 84.9944C161.551 87.6815 162.184 92.8498 165.726 93.1723C166.405 93.3117 167.11 93.2037 167.716 92.8677C167.968 92.6407 168.171 92.365 168.313 92.0571C168.456 91.7493 168.535 91.4156 168.546 91.0763C168.674 89.9711 168.605 88.8518 168.341 87.7711C169.001 88.1294 169.626 88.7385 170.375 88.622C170.498 88.611 170.616 88.5681 170.718 88.4974C170.82 88.4268 170.901 88.3308 170.955 88.219C170.991 88.0658 170.991 87.9064 170.955 87.7532C170.678 85.2183 170.536 82.7013 170.366 80.1575C173.989 79.3872 177.632 78.7244 181.296 78.169C182.92 77.9272 184.642 77.6585 185.9 76.6015C187.694 75.0788 188.006 72.3917 187.827 70.0628Z" fill="#173789"/>
<path d="M169.09 88.7296C168.483 87.2428 167.439 85.4424 165.788 86.4545C165.211 86.9283 164.811 87.5854 164.655 88.3176C163.906 90.7808 165.664 94.5876 168.073 94.2293C169.241 94.0502 169.857 92.6529 170.375 91.5422" fill="#FFCBBB"/>
<path d="M387.824 248.749C387.81 242.747 389.637 236.887 393.056 231.964C396.476 227.041 401.322 223.294 406.936 221.233C409.015 220.471 418.937 219.719 418.937 219.719C418.937 219.719 417.786 227.323 415.805 231.157C411.192 240.114 402.073 247.602 387.824 248.749Z" fill="#8EBCA2"/>
<path d="M417.028 271.455C420.653 266.986 425.745 263.96 431.391 262.92C437.037 261.879 442.868 262.892 447.838 265.777C448.008 265.851 448.142 265.989 448.212 266.162C448.217 266.271 448.197 266.381 448.153 266.481C448.11 266.582 448.045 266.672 447.963 266.744C445.625 269.326 442.723 271.329 439.484 272.594C436.245 273.859 432.758 274.353 429.297 274.035C425.147 273.495 421.045 272.632 417.028 271.455Z" fill="#A2CCB6"/>
<path d="M425.005 259.318C425.005 252.368 427.316 246.125 431.384 242.031C433.486 239.985 436.025 238.448 438.809 237.539C441.592 236.629 444.546 236.37 447.445 236.782C447.665 236.79 447.875 236.879 448.034 237.033C448.2 237.266 448.267 237.556 448.221 237.839C447.873 246.214 443.689 253.147 437.309 255.924C433.337 257.473 429.217 258.611 425.014 259.318" fill="#8EBCA2"/>
<path d="M435.766 246.877C438.524 242.433 441.861 238.378 445.687 234.82C447.19 233.353 448.872 232.083 450.693 231.041C456.662 227.825 464.023 228.819 470.438 231.041C467.887 235.904 464.558 240.669 459.66 243.133C457.458 244.153 455.138 244.896 452.754 245.345C448.061 246.393 440.557 246.286 435.801 246.913" fill="#A2CCB6"/>
<path d="M432.348 235.26C420.409 228.99 418.652 215.885 418.348 211.075C418.161 208.048 418.348 204.671 420.873 202.485C435.667 207.716 439.45 217.766 432.348 235.295" fill="#8EBCA2"/>
<path d="M380.9 233.37C381.793 226.992 382.685 220.14 379.794 214.389C378.709 212.344 377.319 210.477 375.672 208.854C371.79 204.841 366.749 201.527 361.137 201.518C360.122 207.56 361.307 213.766 364.476 219.003C367.644 224.24 372.585 228.157 378.393 230.038" fill="#8EBCA2"/>
<path d="M415.627 275.092C412.282 273.972 409.202 272.176 406.576 269.814C403.95 267.452 401.834 264.575 400.359 261.36C398.884 258.145 398.081 254.66 398 251.122C397.919 247.583 398.561 244.065 399.888 240.786C399.904 240.631 399.964 240.483 400.06 240.361C400.157 240.238 400.286 240.146 400.433 240.094C400.58 240.043 400.738 240.034 400.889 240.069C401.041 240.104 401.179 240.182 401.289 240.293C411.585 246.232 418.634 263.528 415.627 275.065" fill="#A2CCB6"/>
<path d="M387.637 239.89C385.692 234.255 385.788 228.112 387.91 222.542C390.031 216.971 394.042 212.33 399.236 209.436C401.333 208.271 403.617 207.394 405.482 205.853C406.109 208.658 406.533 211.505 406.749 214.371C407.048 217.203 406.864 220.066 406.205 222.836C404.269 229.921 397.764 234.74 391.233 238.063" fill="#A2CCB6"/>
<path d="M379.009 238.789C368.302 240.088 355.088 235.743 349.351 225.604C367.686 216.253 379.009 230.566 379.009 238.789Z" fill="#A2CCB6"/>
<path d="M385.264 262.803C382.864 254.535 376.538 247.755 368.909 245.283C365.058 244.086 360.965 243.909 357.026 244.767C353.086 245.625 349.435 247.491 346.425 250.182C346.276 250.281 346.153 250.414 346.064 250.569C345.976 250.725 345.925 250.899 345.916 251.078C345.948 251.285 346.035 251.479 346.166 251.642C350.27 257.599 356.81 261.11 363.493 262.588C370.176 264.066 377.082 263.717 383.89 263.206" fill="#A2CCB6"/>
<path d="M371.478 218.725C375.565 222.939 378.804 227.906 381.017 233.352C383.401 239.149 385.334 245.124 386.798 251.221C389.939 264.123 392.108 277.243 393.285 290.472C394.026 297.888 394.516 305.34 395.355 312.748C395.355 312.981 395.748 312.999 395.739 312.748C395.444 306.021 394.846 299.312 394.195 292.594C393.544 285.877 392.776 279.275 391.768 272.656C390.76 266.036 389.502 259.408 387.887 252.896C386.428 246.759 384.528 240.736 382.203 234.874C379.714 228.837 376.43 223.042 371.639 218.546C371.514 218.429 371.336 218.608 371.452 218.725H371.478Z" fill="#597F6E"/>
<path d="M391.197 269.736C388.038 264.487 383.051 260.904 377.661 258.226C371.684 255.244 365.287 253.199 358.692 252.162C355.054 251.518 351.353 251.301 347.664 251.517C347.627 251.526 347.594 251.547 347.57 251.577C347.546 251.607 347.533 251.644 347.533 251.682C347.533 251.721 347.546 251.758 347.57 251.788C347.594 251.818 347.627 251.839 347.664 251.848C350.974 252.009 354.258 252.108 357.541 252.574C360.718 253.033 363.857 253.718 366.937 254.625C370.07 255.554 373.13 256.716 376.091 258.1C378.85 259.338 381.475 260.856 383.925 262.633C386.596 264.69 388.922 267.163 390.813 269.96C390.965 270.192 391.34 269.96 391.188 269.736H391.197Z" fill="#597F6E"/>
<path d="M387.949 254.025C387.949 249.071 387.45 244.172 387.887 239.201C388.289 234.548 389.497 230.001 391.456 225.765C392.571 223.498 393.882 221.335 395.373 219.298C395.471 219.155 395.248 218.993 395.132 219.11C393.612 220.79 392.347 222.685 391.376 224.735C390.355 226.773 389.524 228.902 388.895 231.094C387.611 235.702 387.048 240.483 387.227 245.265C387.289 248.176 387.441 251.114 387.753 254.007C387.753 254.033 387.764 254.058 387.782 254.077C387.8 254.095 387.825 254.105 387.851 254.105C387.877 254.105 387.902 254.095 387.921 254.077C387.939 254.058 387.949 254.033 387.949 254.007V254.025Z" fill="#597F6E"/>
<path d="M363.074 229.07C366.339 229.41 369.32 231.247 371.996 233.119C375.093 235.405 378.038 237.891 380.812 240.562C382.257 241.906 383.667 243.321 385.193 244.575C385.326 244.682 385.523 244.503 385.389 244.369C382.712 241.682 379.902 239.156 377.037 236.719C374.272 234.197 371.184 232.056 367.856 230.351C366.37 229.6 364.757 229.135 363.101 228.98C363.038 228.98 363.038 229.061 363.101 229.07H363.074Z" fill="#597F6E"/>
<path d="M411.442 290.856C412.33 285.788 413.705 280.817 415.546 276.014C417.438 271.255 419.831 266.711 422.684 262.462C428.411 253.924 435.854 246.684 444.536 241.207C446.956 239.687 449.468 238.32 452.057 237.114C454.734 235.886 457.411 234.919 460.088 233.907C460.143 233.891 460.19 233.854 460.219 233.804C460.247 233.754 460.255 233.694 460.239 233.638C460.224 233.582 460.187 233.535 460.137 233.506C460.087 233.478 460.027 233.47 459.972 233.486C457.501 234.179 455.093 235.078 452.771 236.173C450.407 237.236 448.104 238.432 445.874 239.756C441.431 242.379 437.284 245.479 433.507 249C425.879 256.059 419.819 264.653 415.725 274.223C413.392 279.517 411.823 285.118 411.067 290.856C411.067 291.045 411.353 291.089 411.389 290.856H411.442Z" fill="#597F6E"/>
<path d="M425.95 212.589C430.724 222.585 433.57 234.346 431.366 245.399C430.693 248.563 429.626 251.63 428.19 254.526C428.159 254.581 428.151 254.646 428.168 254.706C428.184 254.767 428.224 254.818 428.279 254.849C428.333 254.88 428.398 254.888 428.458 254.871C428.518 254.854 428.569 254.814 428.6 254.759C431.607 249.833 432.731 243.706 432.749 237.991C432.71 232.16 431.718 226.375 429.814 220.865C428.83 217.96 427.638 215.131 426.245 212.401C426.129 212.186 425.816 212.401 425.923 212.589H425.95Z" fill="#597F6E"/>
<path d="M434.087 282.159V292.648C434.087 334.263 423.175 346.095 423.175 346.095H389.412C389.412 346.095 378.491 334.263 378.491 292.648V282.159H434.087Z" fill="#F2F5F9"/>
<path d="M71.2637 346.104L99.9138 208.173" stroke="#544943" stroke-width="1.5" stroke-miterlimit="10"/>
<path d="M128.573 346.104L99.9141 208.173" stroke="#544943" stroke-width="1.5" stroke-miterlimit="10"/>
<path d="M360.683 346.104L389.342 208.173" stroke="#544943" stroke-width="1.5" stroke-miterlimit="10"/>
<path d="M417.991 346.104L389.341 208.173" stroke="#544943" stroke-width="1.5" stroke-miterlimit="10"/>
<path d="M414.476 199.915H72.1914V208.164H414.476V199.915Z" fill="#E7EAF2"/>
<path d="M397.969 184.186H277.052C276.545 184.186 276.044 184.074 275.584 183.859C275.124 183.644 274.717 183.33 274.392 182.939C274.066 182.549 273.829 182.092 273.699 181.6C273.568 181.108 273.546 180.594 273.635 180.092L287.536 101.619C287.748 100.414 288.375 99.3232 289.308 98.537C290.242 97.7508 291.421 97.3197 292.639 97.3193H413.566C414.073 97.3193 414.574 97.4309 415.033 97.6462C415.493 97.8616 415.9 98.1754 416.226 98.5656C416.552 98.9558 416.788 99.4129 416.919 99.9048C417.05 100.397 417.072 100.911 416.983 101.413L403.082 179.877C402.872 181.085 402.244 182.179 401.308 182.968C400.373 183.756 399.19 184.187 397.969 184.186Z" fill="#475577"/>
<path d="M400.789 184.186H279.827C279.32 184.186 278.819 184.074 278.359 183.859C277.9 183.644 277.493 183.33 277.167 182.94C276.841 182.549 276.605 182.092 276.474 181.6C276.343 181.108 276.321 180.594 276.41 180.092L290.311 101.619C290.523 100.414 291.151 99.3233 292.084 98.537C293.017 97.7508 294.196 97.3197 295.415 97.3194H416.377C416.886 97.3168 417.389 97.4264 417.85 97.6406C418.312 97.8548 418.721 98.1682 419.049 98.5587C419.377 98.9493 419.615 99.4074 419.747 99.9005C419.879 100.394 419.901 100.91 419.812 101.413L405.893 179.877C405.683 181.084 405.056 182.177 404.123 182.965C403.189 183.753 402.009 184.185 400.789 184.186Z" fill="#C0CCD8"/>
<path opacity="0.45" d="M378.527 184.186H308.664C308.372 184.185 308.083 184.12 307.818 183.996C307.553 183.871 307.318 183.69 307.13 183.464C306.942 183.239 306.806 182.975 306.73 182.692C306.655 182.408 306.642 182.111 306.692 181.821L314.723 136.498C314.848 135.803 315.212 135.174 315.752 134.721C316.291 134.267 316.972 134.018 317.676 134.017H387.539C387.832 134.018 388.121 134.083 388.386 134.208C388.651 134.332 388.885 134.514 389.073 134.739C389.261 134.964 389.397 135.228 389.473 135.512C389.549 135.795 389.562 136.092 389.511 136.382L381.445 181.669C381.328 182.365 380.973 182.998 380.44 183.457C379.907 183.917 379.23 184.175 378.527 184.186Z" fill="#8E9DB2"/>
<path d="M380.205 184.186H310.342C310.049 184.186 309.759 184.122 309.493 183.998C309.227 183.874 308.992 183.693 308.804 183.467C308.616 183.241 308.479 182.977 308.404 182.693C308.329 182.408 308.318 182.11 308.37 181.821L316.4 136.498C316.522 135.803 316.884 135.173 317.422 134.719C317.961 134.265 318.642 134.016 319.345 134.017H389.208C389.501 134.016 389.791 134.08 390.056 134.204C390.322 134.328 390.557 134.509 390.746 134.735C390.934 134.961 391.07 135.225 391.145 135.51C391.22 135.794 391.232 136.092 391.18 136.381L383.149 181.704C383.028 182.4 382.666 183.029 382.127 183.483C381.589 183.937 380.908 184.186 380.205 184.186Z" fill="#C6D2E0"/>
<path d="M364.724 157.529H336.368V184.186H364.724V157.529Z" fill="#8E9DB2"/>
<path d="M363.091 157.529H336.368V165.188L343.658 195.588H372.031L363.091 157.529ZM356.23 187.473C353.053 187.473 349.698 183.756 348.726 179.17C347.753 174.584 349.556 170.858 352.732 170.858C355.908 170.858 359.272 174.575 360.236 179.17C361.199 183.765 359.406 187.473 356.23 187.473Z" fill="#475577"/>
<path d="M320.772 195.588H384.283V199.915H316.472C316.472 198.769 316.924 197.67 317.731 196.859C318.537 196.048 319.631 195.591 320.772 195.588Z" fill="#475577"/>
<path d="M384.247 195.588H333.469V199.915H384.247V195.588Z" fill="#C0CCD8"/>
<path d="M364.733 157.529H336.368L345.291 195.588H373.664L364.733 157.529ZM357.773 187.473C354.597 187.473 351.233 183.756 350.269 179.17C349.306 174.584 351.09 170.858 354.267 170.858C357.443 170.858 360.807 174.575 361.77 179.17C362.734 183.765 360.923 187.473 357.773 187.473Z" fill="#C0CCD8"/>
<g opacity="0.65">
<path opacity="0.65" d="M298.493 105.049L296.807 114.544H298.493L300.17 105.049H298.493Z" fill="#8E9DB2"/>
<path opacity="0.65" d="M303.355 105.049L301.669 114.544H303.355L305.033 105.049H303.355Z" fill="#8E9DB2"/>
<path opacity="0.65" d="M308.219 105.049L306.532 114.544H308.219L309.896 105.049H308.219Z" fill="#8E9DB2"/>
<path opacity="0.65" d="M313.072 105.049L311.395 114.544H313.072L314.758 105.049H313.072Z" fill="#8E9DB2"/>
<path opacity="0.65" d="M317.935 105.049L316.258 114.544H317.935L319.622 105.049H317.935Z" fill="#8E9DB2"/>
</g>
<g opacity="0.65">
<path opacity="0.65" d="M362.306 105.049L360.629 114.544H362.306L363.993 105.049H362.306Z" fill="#8E9DB2"/>
<path opacity="0.65" d="M367.419 105.049L365.741 114.544H367.419L369.105 105.049H367.419Z" fill="#8E9DB2"/>
<path opacity="0.65" d="M372.532 105.049L370.854 114.544H372.532L374.209 105.049H372.532Z" fill="#8E9DB2"/>
<path opacity="0.65" d="M377.644 105.049L375.958 114.544H377.644L379.322 105.049H377.644Z" fill="#8E9DB2"/>
<path opacity="0.65" d="M382.748 105.049L381.07 114.544H382.748L384.434 105.049H382.748Z" fill="#8E9DB2"/>
<path opacity="0.65" d="M387.86 105.049L386.183 114.544H387.86L389.537 105.049H387.86Z" fill="#8E9DB2"/>
<path opacity="0.65" d="M392.973 105.049L391.296 114.544H392.973L394.651 105.049H392.973Z" fill="#8E9DB2"/>
<path opacity="0.65" d="M398.077 105.049L396.399 114.544H398.077L399.763 105.049H398.077Z" fill="#8E9DB2"/>
<path opacity="0.65" d="M403.189 105.049L401.512 114.544H403.189L404.867 105.049H403.189Z" fill="#8E9DB2"/>
<path opacity="0.65" d="M408.301 105.049L406.624 114.544H408.301L409.979 105.049H408.301Z" fill="#8E9DB2"/>
</g>
<g opacity="0.55">
<path opacity="0.55" d="M168.599 178.409C169.024 178.335 169.415 178.128 169.715 177.817C170.375 176.922 169.278 175.919 168.564 175.453C167.671 174.871 166.387 174.673 165.941 173.536C165.494 172.398 166.306 170.849 167.35 170.159C168.268 169.629 169.244 169.208 170.259 168.905C171.418 168.528 172.423 167.783 173.123 166.782C173.935 165.483 173.774 163.817 173.873 162.357C174.292 156.643 180.118 153.803 185.017 153.687C187.47 153.633 191.209 154.511 192.842 156.428C193.404 157.063 193.792 157.835 193.966 158.667C194.059 159.287 194.009 159.919 193.819 160.516C193.628 161.113 193.303 161.657 192.869 162.107C191.939 162.958 190.965 163.759 189.951 164.507C189.005 165.403 189.683 166.352 189.46 167.427C189.237 168.502 188.425 169.129 187.399 169.702C185.222 170.92 182.661 171.225 180.261 171.888C179.515 172.044 178.809 172.349 178.182 172.784C177.488 173.491 176.889 174.286 176.398 175.148C175.311 176.62 173.723 177.64 171.936 178.015" fill="url(#paint0_linear_323_650)"/>
</g>
<path d="M182.241 192.803H177.593V190.572H182.241C182.597 190.578 182.95 190.513 183.279 190.381C183.609 190.248 183.91 190.051 184.163 189.801C184.416 189.551 184.617 189.253 184.755 188.924C184.892 188.595 184.963 188.242 184.963 187.885V184.042C184.963 183.686 184.892 183.333 184.755 183.004C184.617 182.675 184.416 182.376 184.163 182.126C183.91 181.876 183.609 181.679 183.279 181.547C182.95 181.415 182.597 181.349 182.241 181.355H177.593V179.125H182.241C183.549 179.127 184.803 179.65 185.728 180.578C186.653 181.507 187.173 182.765 187.175 184.078V187.921C187.154 189.221 186.626 190.462 185.703 191.375C184.78 192.288 183.537 192.8 182.241 192.803Z" fill="#E8EAEF"/>
<path d="M162.309 175.9H181.046V193.179C181.046 194.633 180.471 196.027 179.447 197.055C178.423 198.083 177.034 198.66 175.586 198.66H167.743C166.295 198.66 164.906 198.083 163.882 197.055C162.858 196.027 162.282 194.633 162.282 193.179V175.9H162.309Z" fill="#E8EAEF"/>
<path d="M159.275 195.481C159.275 195.481 159.463 199.915 166.324 199.915H177.12C183.982 199.915 184.16 195.481 184.16 195.481H159.275Z" fill="#C6D2E0"/>
<path d="M310.101 198.15H210.812V199.923H310.101V198.15Z" fill="#475577"/>
<path d="M221.313 196.717H214.202V198.141H221.313V196.717Z" fill="#475577"/>
<path d="M232.083 196.717H224.972V198.141H232.083V196.717Z" fill="#475577"/>
<path d="M242.852 196.717H235.741V198.141H242.852V196.717Z" fill="#475577"/>
<path d="M253.622 196.717H246.511V198.141H253.622V196.717Z" fill="#475577"/>
<path d="M264.399 196.717H257.288V198.141H264.399V196.717Z" fill="#475577"/>
<path d="M275.17 196.717H268.059V198.141H275.17V196.717Z" fill="#475577"/>
<path d="M285.938 196.717H278.827V198.141H285.938V196.717Z" fill="#475577"/>
<path d="M296.708 196.717H289.597V198.141H296.708V196.717Z" fill="#475577"/>
<path d="M307.477 196.717H300.366V198.141H307.477V196.717Z" fill="#475577"/>
<path d="M311.395 198.15H212.105V199.923H311.395V198.15Z" fill="#C0CCD8"/>
<path d="M222.616 196.717H215.505V198.141H222.616V196.717Z" fill="#C0CCD8"/>
<path d="M233.386 196.717H226.274V198.141H233.386V196.717Z" fill="#C0CCD8"/>
<path d="M244.155 196.717H237.044V198.141H244.155V196.717Z" fill="#C0CCD8"/>
<path d="M254.924 196.717H247.812V198.141H254.924V196.717Z" fill="#C0CCD8"/>
<path d="M265.693 196.717H258.582V198.141H265.693V196.717Z" fill="#C0CCD8"/>
<path d="M276.463 196.717H269.352V198.141H276.463V196.717Z" fill="#C0CCD8"/>
<path d="M287.232 196.717H280.121V198.141H287.232V196.717Z" fill="#C0CCD8"/>
<path d="M298.011 196.717H290.899V198.141H298.011V196.717Z" fill="#C0CCD8"/>
<path d="M308.78 196.717H301.669V198.141H308.78V196.717Z" fill="#C0CCD8"/>
<path d="M70.8176 266.762C72.0636 261.797 71.5243 256.55 69.2946 251.946C67.065 247.342 63.2881 243.675 58.6295 241.592C56.7558 240.75 54.7393 240.168 53.0351 239.003C52.7053 241.449 52.5532 243.916 52.5801 246.384C52.5278 248.833 52.8961 251.272 53.6686 253.595C55.8457 259.515 61.7702 263.152 67.6055 265.499" fill="#8EBCA2"/>
<path d="M71.5318 282.652C71.6657 278.135 71.5675 273.615 71.2374 269.109C71.1143 267.121 70.8157 265.149 70.3452 263.215C69.7303 260.868 68.872 258.592 67.7844 256.425C66.5882 253.853 64.9135 251.533 62.8503 249.591C62.823 249.564 62.7861 249.548 62.7477 249.548C62.7092 249.548 62.6723 249.564 62.645 249.591C62.6178 249.618 62.6025 249.655 62.6025 249.694C62.6025 249.733 62.6178 249.77 62.645 249.797C64.2595 251.667 65.6823 253.696 66.8922 255.852C68.0708 258.074 69.01 260.416 69.6938 262.839C70.8716 266.923 70.8894 271.339 71.0143 275.549C71.0857 277.913 71.0768 280.296 71.2999 282.652C71.2999 282.678 71.3102 282.703 71.3286 282.721C71.347 282.74 71.372 282.75 71.398 282.75C71.424 282.75 71.449 282.74 71.4674 282.721C71.4858 282.703 71.4962 282.678 71.4962 282.652H71.5318Z" fill="#597F6E"/>
<path d="M56.9526 297.673C56.5095 294.27 55.3865 290.992 53.6509 288.035C51.9153 285.078 49.6029 282.504 46.8523 280.466C44.1191 278.481 41.0144 277.07 37.7246 276.319C35.8777 275.889 27.3389 276.319 27.3389 276.319C27.3389 276.319 29.1234 282.67 31.2469 285.724C36.1454 292.836 44.7288 298.264 56.9972 297.655" fill="#8EBCA2"/>
<path d="M49.5286 275.773C49.3039 271.659 48.5512 267.592 47.2891 263.672C46.8179 262.103 46.1556 260.599 45.3172 259.193C42.5066 254.715 37.2245 252.601 32.1476 251.678C32.0852 256.013 32.5759 260.573 34.9582 264.138C36.0512 265.677 37.3311 267.073 38.7681 268.294C41.5163 270.802 46.5664 273.57 49.5286 275.809" fill="#A2CCB6"/>
<path d="M78.3041 260.796C77.51 255.314 76.7694 249.43 79.2588 244.485C80.1965 242.724 81.4005 241.12 82.8278 239.729C86.1648 236.289 90.5279 233.459 95.3193 233.459C96.172 238.647 95.1533 243.97 92.4462 248.471C89.7695 252.95 83.2828 259.22 78.3487 260.823" fill="#A2CCB6"/>
<path d="M69.5332 292.63C72.0805 293.161 74.7091 293.162 77.2568 292.633C79.8045 292.104 82.2173 291.058 84.3466 289.557C86.4758 288.057 88.2764 286.134 89.6372 283.908C90.9979 281.682 91.8901 279.2 92.2588 276.615C92.3048 276.51 92.3203 276.394 92.3034 276.28C92.2865 276.166 92.2379 276.06 92.1633 275.973C92.0886 275.886 91.991 275.821 91.8816 275.788C91.7722 275.754 91.6555 275.752 91.545 275.782C82.7742 275.728 71.9155 284.139 69.5332 292.63Z" fill="#A2CCB6"/>
<path d="M51.4831 272.817C58.7103 268.732 63.3589 260.554 63.4927 251.66C58.2731 251.364 54.3472 254.589 52.0719 257.366C48.9134 261.235 48.6457 268.034 51.4831 272.817Z" fill="#A2CCB6"/>
<path d="M56.7382 287.166C55.7693 284.741 55.4057 282.115 55.6792 279.516C55.9527 276.918 56.855 274.426 58.3075 272.258C59.76 270.09 61.7185 268.311 64.0126 267.077C66.3066 265.842 68.8665 265.19 71.4693 265.176C71.6923 265.176 71.9421 265.176 72.0581 265.373C72.1259 265.483 72.16 265.611 72.1563 265.741C72.3526 270.219 70.3718 274.545 67.5969 278.012C64.822 281.478 61.1906 284.183 57.577 286.772" fill="#A2CCB6"/>
<path d="M86.2271 248.041C82.6178 251.582 79.7562 255.816 77.8132 260.492C75.7189 265.378 74.0182 270.425 72.7273 275.585C69.9401 286.721 68.0278 298.06 67.008 309.496C66.3478 315.963 65.7321 322.466 65.4912 328.969C65.4912 329.22 65.8481 329.211 65.8749 328.969C66.553 323.272 66.9277 317.531 67.4809 311.825C68.0341 306.12 68.6676 300.477 69.5152 294.807C70.3629 289.137 71.389 283.673 72.7273 278.191C73.9548 272.911 75.5316 267.72 77.4473 262.65C79.5263 257.339 82.319 252.233 86.3698 248.203C86.4947 248.086 86.3074 247.907 86.1914 248.014L86.2271 248.041Z" fill="#597F6E"/>
<path d="M56.7293 294.843C56.7293 293.839 56.64 292.836 56.6757 291.833C56.7084 290.682 56.8037 289.534 56.9612 288.393C57.1129 287.319 57.3092 286.253 57.559 285.196C57.8089 284.139 58.1747 283.279 58.2996 282.311C58.2996 282.132 58.0765 282.114 57.9873 282.231C57.4821 283.127 57.1406 284.107 56.9791 285.124C56.7172 286.204 56.5176 287.299 56.3813 288.402C56.2341 289.541 56.1448 290.686 56.1136 291.833C56.0419 292.861 56.1049 293.894 56.301 294.905C56.3199 294.951 56.3536 294.99 56.3968 295.015C56.44 295.039 56.4903 295.049 56.5395 295.042C56.5887 295.035 56.6341 295.011 56.6685 294.975C56.7029 294.939 56.7243 294.892 56.7293 294.843Z" fill="#597F6E"/>
<path d="M57.3265 257.805C55.255 259.824 53.7528 262.359 52.9724 265.15C51.8776 268.472 51.3792 271.962 51.5002 275.459C51.5097 277.413 51.8104 279.354 52.3924 281.219C52.4019 281.256 52.4255 281.287 52.4581 281.306C52.4908 281.326 52.5297 281.331 52.5664 281.322C52.6031 281.312 52.6345 281.288 52.6537 281.256C52.673 281.223 52.6785 281.184 52.669 281.147C51.8631 277.835 51.6278 274.408 51.9731 271.017C52.2859 267.732 53.193 264.533 54.6498 261.576C55.3241 260.195 56.2295 258.941 57.3265 257.867C57.3265 257.867 57.3265 257.769 57.2552 257.805H57.3265Z" fill="#597F6E"/>
<path d="M59.4328 320.093C59.494 316.244 59.3003 312.396 58.8528 308.574C58.4642 304.58 57.8685 300.61 57.0684 296.679C55.4905 288.642 52.7268 280.886 48.8686 273.668C47.7844 271.701 46.593 269.797 45.2996 267.962C44.0319 266.088 42.5856 264.342 40.9811 262.749C40.7759 262.552 40.5082 262.847 40.6778 263.053C41.9447 264.63 43.2742 266.144 44.4698 267.774C45.6386 269.387 46.7256 271.058 47.7265 272.781C49.7429 276.292 51.4506 279.972 52.8302 283.78C55.5645 291.353 57.3771 299.23 58.2283 307.239C58.719 311.512 58.8529 315.784 59.1205 320.075C59.1292 320.112 59.1503 320.145 59.1803 320.169C59.2102 320.193 59.2473 320.206 59.2856 320.206C59.3238 320.206 59.361 320.193 59.3909 320.169C59.4209 320.145 59.4419 320.112 59.4507 320.075L59.4328 320.093Z" fill="#597F6E"/>
<path d="M88.9567 302.483V309.649C88.9567 338.034 79.5791 346.104 79.5791 346.104H50.5543C50.5543 346.104 41.1768 338.043 41.1768 309.649V302.483H88.9567Z" fill="#F2F5F9"/>
<path d="M25.2422 346.104H480.69" stroke="#475577" stroke-width="2" stroke-miterlimit="10"/>
</g>
<defs>
<linearGradient id="paint0_linear_323_650" x1="179.913" y1="178.409" x2="179.913" y2="153.687" gradientUnits="userSpaceOnUse">
<stop stop-color="white" stop-opacity="0.1"/>
<stop offset="1" stop-color="white" stop-opacity="0.4"/>
</linearGradient>
<clipPath id="clip0_323_650">
<rect width="484" height="347" fill="white"/>
</clipPath>
</defs>
</svg>
