<svg xmlns="http://www.w3.org/2000/svg" width="550" height="387" viewBox="0 0 2257 1589"><defs><style>.cls-1{isolation:isolate;}.cls-2{fill:#ededed;}.cls-3{fill:#daeef7;mix-blend-mode:multiply;opacity:0.3;}.cls-4{fill:#feb546;}.cls-5{fill:#fff;}.cls-6{fill:#ffc0bb;}.cls-7{fill:#f99893;}.cls-8{fill:#07085b;}.cls-9{fill:#333;}.cls-10{fill:#02ccc0;}.cls-11{fill:#ff5b7e;}.cls-12{fill:#040744;}.cls-13{fill:#c12f56;}</style></defs><g class="cls-1"><g id="Layer_1" data-name="Layer 1"><path class="cls-2" d="M2128.26,1121.21c-47.89,81.88-112.59,152.49-189.63,211.87a910,910,0,0,1-92.15,62.48q-4.77,2.89-9.61,5.66a1116.38,1116.38,0,0,1-165.13,78c-6.06,2.33-12.19,4.58-18.33,6.8-4.69,1.7-9.38,3.36-14.11,5-.41.15-.85.3-1.29.44q-30,10.42-60.93,19.48c-6.73,2-13.45,3.91-20.25,5.76q-18.46,5.16-37.21,9.75-9.93,2.5-19.92,4.81a1521.36,1521.36,0,0,1-151.24,27.19C793.18,1630.09,156.52,1415.67,37.69,930.92,2.29,786.59,62,698.31,145.55,642.63c41.53-27.71,89-47.37,133.54-61.82,1.92-.66,3.88-1.29,5.8-1.88.07,0,.15,0,.22-.08C323.28,566.77,359,558.42,386.58,552c0,0,1.4-3.25,4.32-9.2,33.29-68,262-490.74,812.35-511.17,346-12.86,365.51,239.44,501.64,351h0c36.1,29.6,80.41,49.29,141.19,51.51h0c2.47.11,5,.14,7.54.18h0c3.36,0,6.76,0,10.24,0,1.7,0,3.47-.07,5.21-.14.59,0,1.14,0,1.73,0,0,0,.08,0,.11,0,2.48-.07,5-.22,7.51-.37,0,0,.07,0,.07,0,1.66-.07,3.36-.22,5-.33,4.48-.33,9.06-.74,13.71-1.26h0c.41,0,.81-.07,1.22-.11,3.66-.41,7.24-.74,10.83-1.07h0c7.28-.59,14.41-1,21.47-1.18h0c40.2-1.15,77,4.13,110.15,15.07C2250.86,513.93,2311.05,808.61,2128.26,1121.21Z"/><path class="cls-3" d="M971.9,813.15H566.23A23.83,23.83,0,0,0,542.4,837v169a23.83,23.83,0,0,0,23.83,23.83h42.13c-2.45,18.61-5.65,45.3-3.89,45.3s22.31-28.08,34.67-45.3H971.9A23.83,23.83,0,0,0,995.74,1006V837A23.83,23.83,0,0,0,971.9,813.15Z"/><path class="cls-4" d="M991.3,768.22H585.62a23.83,23.83,0,0,0-23.83,23.84v169a23.83,23.83,0,0,0,23.83,23.84h42.13c-2.44,18.6-5.65,45.29-3.89,45.29s22.31-28.08,34.67-45.29H991.3a23.83,23.83,0,0,0,23.83-23.84v-169A23.83,23.83,0,0,0,991.3,768.22Z"/><circle class="cls-5" cx="640.33" cy="877.16" r="59.75" transform="translate(-432.7 709.7) rotate(-45)"/><rect class="cls-6" x="632.24" y="907.27" width="17.54" height="17.52"/><path class="cls-7" d="M649.79,917.77v-10.5H632.24v8.93C636,918.23,641.61,919.4,649.79,917.77Z"/><path class="cls-6" d="M677.45,875.92a6.54,6.54,0,0,0-5.88.23,31.24,31.24,0,0,0-62.48,0,6.52,6.52,0,0,0-5.87-.23c-3.52,1.73-4.61,6.68-2.44,11.07s6.77,6.53,10.28,4.8a5.74,5.74,0,0,0,1.31-.9c2,14.29,14,25,28,24.8,14,.2,25.95-10.51,28-24.8a5.81,5.81,0,0,0,1.32.9c3.51,1.73,8.11-.42,10.28-4.8S681,877.65,677.45,875.92Z"/><path class="cls-8" d="M619,838.09s8.8-7.45,28.82-6.24,23.82,11.64,25,26.56l-1.17,17.74s-5.19-5.34-12-20.15c0,0-11.21,12.57-16.09,11.08s1.85-10.54,1.85-10.54-22.83,19.64-36.28,19.61c0,0-7.11-23,2.88-31.42,0,0-7.53.36-7.92-1.12s3.58-3.7,10.82-2.86c0,0-5.16-10.08-2.28-11.13S619,838.09,619,838.09Z"/><path class="cls-5" d="M651.81,896.33c-.77,3.47-4.74,6.19-9.6,6.34s-9-2.33-10-5.74Z"/><rect class="cls-5" x="720.64" y="816.93" width="237.8" height="10.38" rx="2.35"/><rect class="cls-5" x="720.64" y="844.33" width="56.16" height="10.38" rx="2.35"/><rect class="cls-5" x="798" y="844.33" width="160.45" height="10.38" rx="2.35"/><rect class="cls-5" x="720.64" y="871.72" width="122.85" height="10.38" rx="2.35"/><rect class="cls-5" x="861.46" y="871.72" width="96.98" height="10.38" rx="2.35"/><rect class="cls-5" x="720.64" y="899.12" width="237.8" height="10.38" rx="2.35"/><path class="cls-8" d="M1189,554.17l14.78,92.71L1235,523.28s-43.76-21.24-45.7-13.51S1189,554.17,1189,554.17Z"/><polygon class="cls-6" points="1437.41 753.69 1450.92 913.95 1309.51 907.2 1325.81 765.28 1437.41 753.69"/><path class="cls-7" d="M1318.05,832.77l7.76-67.49,111.6-11.59,4.68,55.5C1419.9,831.3,1380,854.22,1318.05,832.77Z"/><path class="cls-7" d="M1231.34,645.71c8.51,17.59,4,37.36-10.07,44.16s-32.37-1.93-40.87-19.52-4-37.36,10.07-44.16S1222.84,628.13,1231.34,645.71Z"/><path class="cls-6" d="M1230.32,727c-10.12-22.67-16-47-19.5-68.42-.74-4.59-1.74-9.12-2.83-13.64a151.28,151.28,0,0,1-2.52-58.17c9.83-65.57,62.59-117.85,128.27-126.93a151.12,151.12,0,0,1,171.94,140c9.1-5.84,19.62-7.72,29.21-4.15,18.4,6.86,26.37,31.07,17.8,54.08s-30.45,36.09-48.85,29.23a29.29,29.29,0,0,1-7-3.84c-2.84,74.31-59.73,135.14-132.36,138.54-35.52,1.66-68.57-10.72-94.22-32.41C1253.8,769.29,1238.29,745.78,1230.32,727Z"/><path class="cls-7" d="M1321,610.14c-.29,8.66-.36,17.11-.81,25.39-.51,7.65-1.35,18.66-6.12,24.49-.7,1-4.45,5.05-4.54,11.2a17.86,17.86,0,0,0,6.6,14c7.72,6.5,17.72,7.11,26,5.07-8.45-1.49-16.54-4.4-21.26-9.91-2.18-2.74-3.63-5.81-3.12-8.68.37-3.3,2.21-5,2.87-6,2.35-3.11,5.18-6.35,6.38-16.93a70.51,70.51,0,0,0,0-13.32A90.6,90.6,0,0,0,1321,610.14Z"/><path class="cls-9" d="M1371.1,621.58a13.19,13.19,0,1,0,12.56-13.79A13.19,13.19,0,0,0,1371.1,621.58Z"/><path class="cls-9" d="M1258.3,634.3a13.19,13.19,0,1,0,12.56-13.79A13.19,13.19,0,0,0,1258.3,634.3Z"/><path class="cls-7" d="M1393.23,710.89c-13.43,11.7-30.9,20.84-48.24,22.94-18.76,2.37-35.33-3.35-51.3-13.18,14.87,12.49,32.09,18.82,51.72,16.62C1364.53,734.78,1382.4,723.77,1393.23,710.89Z"/><path class="cls-8" d="M1354.55,591.8c18.58-5.75,29.11-6.07,37.6-5,18.54,2.49,29,10.69,35.44,13.53-7.8-14.37-19.78-22-34.27-23.84C1377.63,574.56,1362.28,581.65,1354.55,591.8Z"/><path class="cls-8" d="M1296.44,598.34c-9.53-8.42-26-12.44-41-7.53-13.81,4.57-24.11,14.39-29,30,5.82-4.05,14.43-14.1,32.14-20.14C1266.68,598.05,1277.05,596.31,1296.44,598.34Z"/><path class="cls-10" d="M1293.71,850s-133.09,16.9-166.89,44.37-196.46,430.94-196.46,430.94l135.2,158.44,287.3,2.11s215.47,116.19,350.67,6.34S1769,1000,1690.85,917.64s-217.58-80.27-217.58-80.27S1346.52,926.09,1293.71,850Z"/><path class="cls-5" d="M1551.43,1050.73c-4.76,22-7.67,44.31-9.75,66.7-1.14,11.2-1.64,22.44-2.28,33.68-.34,11.25-.6,22.51-.45,33.78.44,22.53,1.68,45.13,5.55,67.43s9.28,44.51,19.61,64.58c-6.95-21.41-10.4-43.42-12.89-65.49s-3.3-44.37-3.59-66.63c-.46-22.28.09-44.59.79-66.93S1550.24,1073.17,1551.43,1050.73Z"/><path class="cls-5" d="M1153.23,1035.94c-6.08,32.73-12.52,65.33-19.07,97.88s-13.59,65-21.46,97.18-16.43,64.22-26.9,95.59a464.73,464.73,0,0,1-18,46.18c-6.76,15-14.78,29.62-25.53,42.36,12.23-11.41,21.22-25.88,29.35-40.46a382,382,0,0,0,20.52-45.79c6-15.61,11.1-31.53,16-47.5q7-24,13-48.33c3.82-16.24,7.48-32.5,10.77-48.84s6.29-32.72,8.91-49.17C1146.25,1102.18,1150.47,1069.13,1153.23,1035.94Z"/><path class="cls-6" d="M1086.35,1392.47c.85-6.68,51.62-14.15,70.28-15.12,14.14-.73,107.87-3.86,139.75-5.3l-2.34,8.2.49,36.2,5.23,24c-28,1.76-96.35,4.44-110.59,7.26-19,3.76-52,18.1-52,18.1s-13.72-3.12,3.72-10.64a83.74,83.74,0,0,0,28-20.05c2.39-2.68-.2-7.44-1.94-7-47.47,12.44-52.36,14.5-52.36,14.5s-55.79-.31-.31-12.85c33.25-7.52,45.17-11.89,48.13-15.62,1.26-1.59-1-7-3-7.12-28.82-1.78-80.53,8.43-66.36,1.74,11.55-5.47,47.93-11.45,62.07-13.71.87-.14,2.28-5.41-1.59-5.73C1126.05,1387.05,1085.56,1398.69,1086.35,1392.47Z"/><path class="cls-5" d="M1549,1319.92c-11.65,2.77-23.47,4.8-35.17,7.26-23.55,4.3-47.17,8-70.87,11.36-23.72,3.12-47.47,6-71.29,8.28s-47.85,4.38-71.33,5.69l-3.16.17-.69,2.74a192.9,192.9,0,0,0-4.34,23.69,189.39,189.39,0,0,0-1.4,23.93,154,154,0,0,0,2.08,24,110.66,110.66,0,0,0,7,23.11l.27.64.52.34,26.09,17.51q13,8.76,26.23,17.31-12.27-9.83-24.74-19.39l-24.27-18.73a105.51,105.51,0,0,1-5.28-21.69,153.31,153.31,0,0,1-1.12-23,219.08,219.08,0,0,1,2.09-23,197,197,0,0,1,3.9-19.69c11.26-.37,22-1.1,33.11-1.91,12-.88,24-1.83,36-3.09,23.92-2.48,47.8-5.46,71.56-9.26s47.39-8.47,70.81-14c11.66-3,23.34-5.85,34.82-9.48,11.58-3.25,22.92-7.3,34.22-11.32C1572.23,1314.2,1560.71,1317.46,1549,1319.92Z"/><path class="cls-8" d="M529.28,1123.61H982.06a34.24,34.24,0,0,1,31.67,21.25l138.64,338.4H1402.7a12.68,12.68,0,0,1,12.67,12.68h0a12.67,12.67,0,0,1-12.67,12.67H680a33.87,33.87,0,0,1-30.91-20L503.33,1163.7A28.45,28.45,0,0,1,529.28,1123.61Z"/><path class="cls-8" d="M1186.15,466.47s-44.37,1.43,2.19-36.09,171.57-81.51,251.7-39.2c0,0,16-34.06,39.18-25.93s-15.06,31.57-15.06,31.57,29.58-.95,38.6,13.56c6.68,10.72-11.44,11.19-21.34,10.71,16.84,2.86,81.39,43.63,49,173.79-11.51-2.53-77.13-97.69-77.13-97.69s-150.07,83.37-135.23,17.08c0,0-155.46,97-133.41,16.88C1184.64,531.15,1124.53,535.55,1186.15,466.47Z"/><path class="cls-8" d="M1530.54,595.66s-12.43-4.37-25.79,6.24-11.89,47.87-11.89,47.87-63.79,41.14-57.06-132.92C1443,331.67,1489,531.7,1489,531.7Z"/><path class="cls-3" d="M679.23,429.46H214.6a29.06,29.06,0,0,0-29.06,29.06V650.26a29.06,29.06,0,0,0,29.06,29.06H580.4C595.21,700,622.05,737,624.42,737s-2.06-34.94-5.07-57.65h59.88a29.06,29.06,0,0,0,29.06-29.06V458.52A29.06,29.06,0,0,0,679.23,429.46Z"/><path class="cls-11" d="M660,379.72H195.42a29.06,29.06,0,0,0-29.06,29.06V600.52a29.06,29.06,0,0,0,29.06,29.06h365.8c14.8,20.66,41.64,57.66,44,57.66s-2.05-34.94-5.06-57.66H660a29.06,29.06,0,0,0,29.06-29.06V408.78A29.06,29.06,0,0,0,660,379.72Z"/><circle class="cls-5" cx="266.08" cy="504.65" r="72.85" transform="translate(-174.22 141.87) rotate(-22.71)"/><path class="cls-12" d="M228.16,506.57s-7.23-29.64,10-40.75,35.59-13.64,48.14-7.24c17.41,8.86,24.56,32.82,19,46.07l-46.2-11.6Z"/><rect class="cls-6" x="256.21" y="541.36" width="21.39" height="21.36"/><path class="cls-7" d="M277.6,554.17V541.36H256.21v10.89C260.82,554.73,267.64,556.15,277.6,554.17Z"/><path class="cls-6" d="M311.33,503.13a8,8,0,0,0-7.16.29,36.71,36.71,0,0,0-38.09-38.05A36.71,36.71,0,0,0,228,503.42a8,8,0,0,0-7.17-.29c-4.28,2.11-5.61,8.16-3,13.5s8.25,8,12.53,5.86a7.27,7.27,0,0,0,1.61-1.1c2.45,17.42,17,30.48,34.09,30.24,17.08.24,31.63-12.82,34.09-30.24a7.45,7.45,0,0,0,1.6,1.1c4.28,2.11,9.9-.52,12.54-5.86S315.61,505.24,311.33,503.13Z"/><path class="cls-5" d="M280.07,528c-.94,4.22-5.77,7.54-11.7,7.72s-11-2.83-12.16-7Z"/><path class="cls-12" d="M228,503.42s28-8.48,40.25-22.64c0,0-3.47,17.06-6.06,19.78.82.54,28-12.65,31.65-24.83s-27.75-16.56-27.75-16.56-10.78,4.59-11.32,4.86-10.65,1.45-11.81,4c-1.51,3.35-8.64,3.65-8.64,3.65l-4.51,9.37-3.15,9.86Z"/><path class="cls-12" d="M205.06,464.85c6.18,2.49,13.32,3.64,20.72,1.37,16.34-5,22.81-3.07,25-1.84a5.34,5.34,0,0,0,4.28.56c1.61-.54,3.11-2,2.64-5.68,0,0,.65-15.52-12.66-24.37A73.06,73.06,0,0,0,205.06,464.85Z"/><path class="cls-4" d="M240.21,463.83h0a1.38,1.38,0,0,1,.34-2c2.73-1.8,9.75-5.84,18.18-6.27a1.39,1.39,0,0,1,1.45,1.39h0a1.38,1.38,0,0,1-1.31,1.38c-7.71.4-14.31,4.2-16.8,5.82A1.37,1.37,0,0,1,240.21,463.83Z"/><rect class="cls-5" x="353.13" y="441.89" width="97.59" height="12.66" rx="2.87"/><rect class="cls-5" x="353.13" y="475.3" width="65.92" height="12.66" rx="2.87"/><rect class="cls-5" x="430.42" y="475.3" width="81.12" height="12.66" rx="2.87"/><rect class="cls-5" x="466.9" y="441.89" width="165.37" height="12.66" rx="2.87"/><rect class="cls-5" x="353.13" y="540.77" width="279.14" height="12.66" rx="2.87"/><rect class="cls-5" x="353.13" y="508.7" width="144.2" height="12.66" rx="2.87"/><rect class="cls-5" x="518.43" y="508.7" width="113.84" height="12.66" rx="2.87"/><ellipse class="cls-5" cx="782.07" cy="1316.9" rx="28.61" ry="39.14" transform="translate(-254.91 189.72) rotate(-11.91)"/><path class="cls-13" d="M630.48,170.74l9.68,73-51.84-37.85L429.65,124.81,552.38,136s62.52,15.19,65.91,18.25S630.48,170.74,630.48,170.74Z"/><polygon class="cls-11" points="684.82 126.67 429.65 124.81 630.48 170.74 684.82 126.67"/><polygon class="cls-11" points="548.45 244.16 615.31 190.46 429.65 124.81 548.45 244.16"/><path class="cls-4" d="M946.07,565.2l-3.37-5a68.53,68.53,0,0,0,14-12.71l4.59,3.87A74.42,74.42,0,0,1,946.07,565.2Z"/><path class="cls-4" d="M979.83,516.23l-5.73-1.8A169.07,169.07,0,0,0,980.94,477l6,.46A174.46,174.46,0,0,1,979.83,516.23Zm6.9-78-6,.61c-.17-1.65-.36-3.3-.58-4.94A155.5,155.5,0,0,0,977,417.08c-1.26-5.12-2.81-10.27-4.6-15.32l5.67-2c1.85,5.24,3.45,10.58,4.76,15.89a162.23,162.23,0,0,1,3.31,17.44C986.35,434.74,986.55,436.46,986.73,438.2ZM955.9,367.43a222.38,222.38,0,0,0-22.77-30.69l4.5-4A227.32,227.32,0,0,1,961,364.3ZM768.15,353.22c-4.09,1-14.51,1.24-21.2-2.75a31.78,31.78,0,0,1-12.05-13.55l5.4-2.64a25.54,25.54,0,0,0,9.72,11c4.83,2.87,13.43,2.88,16.69,2.07a2.79,2.79,0,0,0,.61-.19l.85-.56,3.34,5-1,.68A8,8,0,0,1,768.15,353.22Zm137.59-43.3A308,308,0,0,0,875,287l3.29-5a314.47,314.47,0,0,1,31.38,23.43Zm-112.58,7.95-5.88-1.24a56,56,0,0,0,1.18-11.22,66.63,66.63,0,0,0-2-16.19,81.53,81.53,0,0,0-2.8-9l5.62-2.11a84.56,84.56,0,0,1,3,9.67,72.57,72.57,0,0,1,2.19,17.64A61.58,61.58,0,0,1,793.16,317.87Zm-52.83-18.5-5.42-2.59c5.45-11.39,15.68-21.36,28.08-27.37l.82-.39,2.56,5.44-.76.36C754.41,280.24,745.2,289.19,740.33,299.37ZM840,272.43c-10.9-3.33-19.55-5.35-23.74-5.55-4.8-.23-9.2-.28-13.43-.15l-.18-6c4.39-.13,8.94-.08,13.9.16,6.39.3,18.53,3.76,25.2,5.8ZM764.17,248.1a128.76,128.76,0,0,0-28.5-24.79l3.24-5.06a134.37,134.37,0,0,1,29.83,25.95Z"/><path class="cls-4" d="M701.2,207.92a116.11,116.11,0,0,0-19-3.58l.61-6a121.82,121.82,0,0,1,20,3.76Z"/><path class="cls-11" d="M425.5,1057.62s-2.21,21.8-19.42,23.31c17.21,1.51,19.42,23.32,19.42,23.32s2.21-21.81,19.42-23.32C427.71,1079.42,425.5,1057.62,425.5,1057.62Z"/><path class="cls-10" d="M1073.3,746.77s-3.52,34.73-30.92,37.13c27.4,2.4,30.92,37.12,30.92,37.12s3.52-34.72,30.92-37.12C1076.82,781.5,1073.3,746.77,1073.3,746.77Z"/><path class="cls-10" d="M126,327.36s-3.52,34.73-30.92,37.13c27.4,2.4,30.92,37.12,30.92,37.12s3.52-34.72,30.93-37.12C129.55,362.09,126,327.36,126,327.36Z"/><path class="cls-4" d="M788.51,617.81s-2.68,30.76-23.58,32.89c20.9,2.13,23.58,32.89,23.58,32.89s2.69-30.76,23.58-32.89C791.2,648.57,788.51,617.81,788.51,617.81Z"/><path class="cls-4" d="M246.36,168.05s-2.68,30.77-23.58,32.89c20.9,2.13,23.58,32.9,23.58,32.9s2.69-30.77,23.59-32.9C249.05,198.82,246.36,168.05,246.36,168.05Z"/></g></g></svg>