<svg id="Layer_1" data-name="Layer 1" xmlns="http://www.w3.org/2000/svg" viewBox="0 0 91.8 113.45"><defs><style>.cls-1{fill:#9d9e9e;}.cls-2{fill:#b2b3b3;}.cls-3{fill:#c5c6c6;}.cls-4{fill:#0f659e;}.cls-5{fill:#26244a;}</style></defs><g id="Layer_1-2" data-name="Layer 1-2"><path class="cls-1" d="M0,47.1C0,74.4,21.1,95.9,48.7,95.9c20.4-1.5,31-8.1,39.3-26.7C78,79.5,77.4,80.1,66.6,84c-18.7,5.6-34.1-1.4-43.8-11C-3.6,46.8,13.6,6.9,40.8,0,19.4.9,0,23.8,0,47.1Z"/><path class="cls-2" d="M78.1,74.7C62.8,78.5,54,80.9,40.7,71.6c-34.2-23.8-10.6-82,38-63.7C65.4-1,49.5-2.8,35.4,5.2a41,41,0,0,0-.7,71.4C47.1,84.1,68.3,84.2,78.1,74.7Z"/><path class="cls-3" d="M55.7,73.8c-7.8-4.9-14.9-7.6-18.6-20.3C29,25.7,60.5,2.4,85.4,20.8c3.8,3.2,4.5,3.9,6.4,7.5-.3-12.1-30.7-33.2-53.7-9.9C20.2,36.3,31.6,71.2,55.7,73.8Z"/><g id="_739590561456" data-name=" 739590561456"><path class="cls-4" d="M44.2,57.9c-1.2,8.6,4.6,7.8,14.6,7.8H83c.3-.9,1-4,1.9-7.8H61.1c-1.1,0-2.3.1-3.3,0Z"/><path class="cls-5" d="M89.5,35.5a10.18,10.18,0,0,0,0-5.2c-1.2-3.9-9.6-3.2-13.8-3.2-7.3,0-15.8-.4-23,0a8.73,8.73,0,0,0,2.4,5.2c4.8,5.1,9.8,1.3,22,2.9,3.1,2.1,2,2.9,1.6,6.9-7,0-17-.6-23.6.3-7.7,1-8.8,4.9-10.5,13.6-.1.4-.1.7-.2,1H57c-2-.3-3.3-1.3-2.4-4.2,1.2-3.9,5.6-3,9.7-3H76.7c.1,1.6-.9,5.5-1.3,7.2h9.7C87,48.7,89.3,36.9,89.5,35.5Z"/></g></g><path class="cls-1" d="M66.08,88.54V90.6h-11v1.27h3.32V95c2.09,1.41,4.18,4,7.47,7.33,2.72,2.72,8.59,9.46,11.74,10.52,2.46.87,9.64,1.05,11.75-.88C82.07,104.93,73.87,95.52,66.08,88.54Z"/></svg>