<?xml version="1.0" encoding="UTF-8"?><svg xmlns="http://www.w3.org/2000/svg" xmlns:xlink="http://www.w3.org/1999/xlink" viewBox="0 0 750 500"><defs><style>.e{fill:#717a91;}.f{stroke:#ce680d;}.f,.g,.h,.i,.j,.k,.l,.m,.n,.o,.p{fill:none;}.f,.g,.h,.i,.j,.k,.l,.n,.p{stroke-miterlimit:10;}.q{fill:#ffb548;}.r,.s{fill:#fff;}.t{fill:#173789;}.g{stroke:#475577;stroke-width:2px;}.u{fill:#e8eaef;}.v{fill:#597f6e;}.h,.s,.l,.m,.o{stroke:#c0ccd8;}.i,.p{stroke:#ed841b;}.w{fill:#8ebca2;}.x{fill:url(#c);}.y{fill:#c0ccd8;}.a`{fill:#f2f5f9;}.aa{opacity:.65;}.ab{fill:#475577;}.ac{fill:#b9b5b2;}.ad{fill:#0f659e;}.ae,.af{opacity:.45;}.ag,.s,.m,.o{stroke-linejoin:round;}.ag,.n{stroke:#846a6a;}.ag,.ah{fill:#e6e8ef;}.j{stroke:#544943;stroke-width:1.5px;}.ai{opacity:.55;}.k{stroke:#ef977f;}.aj{fill:#c6d2e0;}.ak{fill:#e7eaf2;}.l{stroke-width:3px;}.af,.al{fill:#8e9db2;}.am{fill:#a2ccb6;}.m{stroke-linecap:round;}.an{fill:#fca32d;}.ao{fill:#ffcbbb;}.p{stroke-dasharray:0 0 3 2;}</style><linearGradient id="c" x1="293.13" y1="254.36" x2="293.13" y2="226.76" gradientTransform="matrix(1, 0, 0, 1, 0, 0)" gradientUnits="userSpaceOnUse"><stop offset="0" stop-color="#fff" stop-opacity=".1"/><stop offset="1" stop-color="#fff" stop-opacity=".4"/></linearGradient></defs><g id="a"><rect class="r" width="750" height="500"/></g><g id="b"><g><g><g><rect class="h" x="248.89" y="77.51" width="123.75" height="74.75" rx="3.21" ry="3.21"/><line class="h" x1="248.89" y1="91.05" x2="372.64" y2="91.05"/><circle class="h" cx="256.88" cy="84.35" r="1.98"/><path class="h" d="M267,84.35c0,1.09-.89,1.98-1.98,1.98s-1.98-.89-1.98-1.98,.89-1.98,1.98-1.98,1.98,.89,1.98,1.98Z"/><path class="h" d="M275.14,84.35c0,1.09-.89,1.98-1.98,1.98s-1.98-.89-1.98-1.98,.89-1.98,1.98-1.98,1.98,.89,1.98,1.98Z"/></g><g><rect class="o" x="178.85" y="120.57" width="39.5" height="39.5" rx="5.12" ry="5.12"/><g><circle class="l" cx="198.6" cy="140.32" r="11.31"/><line class="l" x1="206.24" y1="132.34" x2="190.27" y2="148.31"/></g></g><path class="s" d="M480.24,151.09l-8.19-8.49h-126.09c-5.9,0-10.68-4.78-10.68-10.68V66.36c0-5.9,4.78-10.68,10.68-10.68h126.65c5.9,0,10.68,4.78,10.68,10.68v83.5c0,1.6-1.95,2.38-3.06,1.23Z"/><g><rect class="o" x="593.93" y="235.59" width="39.5" height="39.5" rx="5.12" ry="5.12"/><g><path class="y" d="M626.41,266.43c-.15,.05-.31,.08-.47,.08h-24.52c-.51,0-.99-.27-1.25-.71-.26-.44-.26-.99,0-1.44l12.25-21.24c.25-.44,.73-.72,1.24-.72,.51,0,.99,.27,1.25,.72l12.27,21.23c.26,.44,.26,.99,0,1.44-.17,.3-.45,.53-.77,.64Zm-24.32-1.74h23.17l-11.59-20.07-11.58,20.07Z"/><path class="y" d="M613.68,260.47h0c-.46,0-.85-.36-.87-.83l-.5-8.36c-.03-.78,.58-1.42,1.36-1.42h0c.78,0,1.4,.65,1.36,1.42l-.49,8.36c-.02,.46-.4,.83-.87,.83Z"/><path class="y" d="M614.56,262.49c0,.49-.4,.88-.88,.88-.49,0-.88-.4-.88-.88,0-.49,.4-.88,.88-.88,.49,0,.88,.4,.88,.88Z"/></g></g><path class="m" d="M96.44,204.5c0,1.23-1,2.23-2.23,2.23s-2.23-1-2.23-2.23,1-2.23,2.23-2.23,2.23,1,2.23,2.23Z"/><path class="m" d="M470.82,323.31c0,1.23-1,2.23-2.23,2.23s-2.23-1-2.23-2.23,1-2.23,2.23-2.23,2.23,1,2.23,2.23Z"/><path class="m" d="M623.94,140.32c0,1.23-1,2.23-2.23,2.23s-2.23-1-2.23-2.23,1-2.23,2.23-2.23,2.23,1,2.23,2.23Z"/><path class="m" d="M503.66,71.4c0,1.23-1,2.23-2.23,2.23s-2.23-1-2.23-2.23,1-2.23,2.23-2.23,2.23,1,2.23,2.23Z"/><g><line class="m" x1="619.49" y1="213.2" x2="619.49" y2="220.1"/><line class="m" x1="622.94" y1="216.65" x2="616.03" y2="216.65"/></g><g><line class="m" x1="439.1" y1="346.14" x2="439.1" y2="353.04"/><line class="m" x1="442.55" y1="349.59" x2="435.65" y2="349.59"/></g><g><line class="m" x1="293.16" y1="58.68" x2="293.16" y2="65.58"/><line class="m" x1="296.61" y1="62.13" x2="289.71" y2="62.13"/></g><g><line class="m" x1="138.7" y1="125.37" x2="138.7" y2="132.28"/><line class="m" x1="142.15" y1="128.83" x2="135.25" y2="128.83"/></g><g><line class="m" x1="127.46" y1="284.25" x2="127.46" y2="291.15"/><line class="m" x1="130.91" y1="287.7" x2="124.01" y2="287.7"/></g><g><line class="m" x1="518.61" y1="97.75" x2="518.61" y2="104.65"/><line class="m" x1="522.06" y1="101.2" x2="515.16" y2="101.2"/></g><path class="h" d="M178.8,244.96H109.75c-1.21,0-2.18-.98-2.18-2.18h0c0-1.21,.98-2.18,2.18-2.18h69.05c1.21,0,2.18,.98,2.18,2.18h0c0,1.21-.98,2.18-2.18,2.18Z"/><path class="h" d="M585.37,189.82h-69.05c-1.21,0-2.18-.98-2.18-2.18h0c0-1.21,.98-2.18,2.18-2.18h69.05c1.21,0,2.18,.98,2.18,2.18h0c0,1.21-.98,2.18-2.18,2.18Z"/><path class="y" d="M595.47,204.5h-25.53c-.6,0-1.09-.49-1.09-1.09h0c0-.6,.49-1.09,1.09-1.09h25.53c.6,0,1.09,.49,1.09,1.09h0c0,.6-.49,1.09-1.09,1.09Z"/><path class="y" d="M527.93,152.47h-25.53c-.6,0-1.09-.49-1.09-1.09h0c0-.6,.49-1.09,1.09-1.09h25.53c.6,0,1.09,.49,1.09,1.09h0c0,.6-.49,1.09-1.09,1.09Z"/><path class="y" d="M153.14,225.66h-19.53c-.6,0-1.09-.49-1.09-1.09h0c0-.6,.49-1.09,1.09-1.09h19.53c.6,0,1.09,.49,1.09,1.09h0c0,.6-.49,1.09-1.09,1.09Z"/><g><path class="o" d="M547.25,100.74h21.14c2.04,0,3.7,1.66,3.7,3.7v21.14c0,2.04-1.66,3.7-3.7,3.7h-21.14c-2.04,0-3.7-1.66-3.7-3.7v-21.14c0-2.04,1.66-3.7,3.7-3.7Z" transform="translate(1115.64 230.02) rotate(180)"/><path class="y" d="M561.86,113.81l-.5,2.45h2.73v2.18h-3.14l-.81,4.29h-2.32l.82-4.29h-3l-.8,4.29h-2.27l.78-4.29h-2.51v-2.18h2.93l.5-2.45h-2.66v-2.21h3.05l.81-4.3h2.31l-.81,4.3h3.05l.82-4.3h2.27l-.82,4.3h2.54v2.21h-2.95Zm-5.81,2.45h3.02l.5-2.45h-3.02l-.5,2.45Z"/></g><g><path class="ad" d="M351.91,69.45h5.72v23.48h-5.72v-23.48Z"/><path class="ad" d="M374.66,82.8c0-2.54-1.41-3.95-3.58-3.95s-3.58,1.41-3.58,3.95v10.13h-5.72v-18.66h5.72v2.48c1.14-1.57,3.14-2.68,5.65-2.68,4.31,0,7.19,2.94,7.19,7.96v10.9h-5.69v-10.13Z"/><path class="ad" d="M388.67,74.27l4.05,13.31,4.05-13.31h6.09l-6.62,18.66h-7.06l-6.62-18.66h6.12Z"/><path class="ad" d="M412.36,74c2.78,0,4.75,1.27,5.75,2.91v-2.64h5.72v18.66h-5.72v-2.64c-1.04,1.64-3.01,2.91-5.79,2.91-4.55,0-8.19-3.75-8.19-9.63s3.65-9.57,8.23-9.57Zm1.67,4.98c-2.14,0-4.08,1.61-4.08,4.58s1.94,4.65,4.08,4.65,4.08-1.64,4.08-4.62-1.91-4.62-4.08-4.62Z"/><path class="ad" d="M427.98,68.18h5.72v24.75h-5.72v-24.75Z"/><path class="ad" d="M437.31,69.25c0-1.74,1.37-3.11,3.41-3.11s3.38,1.37,3.38,3.11-1.37,3.08-3.38,3.08-3.41-1.37-3.41-3.08Zm.54,5.02h5.72v18.66h-5.72v-18.66Z"/><path class="ad" d="M454.8,74c2.47,0,4.62,1.14,5.75,2.84v-8.66h5.72v24.75h-5.72v-2.68c-1.04,1.71-3.01,2.94-5.75,2.94-4.58,0-8.23-3.75-8.23-9.63s3.65-9.57,8.23-9.57Zm1.67,4.98c-2.14,0-4.08,1.61-4.08,4.58s1.94,4.65,4.08,4.65,4.08-1.64,4.08-4.62-1.91-4.62-4.08-4.62Z"/><path class="ad" d="M372.49,109.59h5.72v14.05c0,2.78,1.37,4.38,4.08,4.38s4.15-1.61,4.15-4.38v-14.05h5.72v14.01c0,6.49-4.55,9.7-9.97,9.7s-9.7-3.21-9.7-9.7v-14.01Z"/><path class="ad" d="M403.76,133.34c-4.98,0-8.33-2.78-8.6-6.39h5.65c.13,1.3,1.3,2.17,2.88,2.17,1.47,0,2.24-.67,2.24-1.5,0-3.01-10.17-.84-10.17-7.69,0-3.18,2.71-5.79,7.59-5.79s7.49,2.68,7.86,6.35h-5.28c-.17-1.27-1.14-2.11-2.74-2.11-1.34,0-2.07,.54-2.07,1.44,0,2.98,10.1,.87,10.2,7.83,0,3.24-2.88,5.69-7.56,5.69Z"/><path class="ad" d="M423.12,133.34c-5.48,0-9.43-3.68-9.43-9.6s3.88-9.6,9.43-9.6,9.3,3.61,9.3,9.3c0,.54-.03,1.1-.1,1.67h-12.94c.2,2.44,1.71,3.58,3.55,3.58,1.61,0,2.51-.8,2.98-1.81h6.09c-.9,3.65-4.21,6.46-8.86,6.46Zm-3.71-11.41h7.16c0-2.04-1.61-3.21-3.51-3.21s-3.31,1.14-3.65,3.21Z"/><path class="ad" d="M441.15,133.07h-5.72v-18.66h5.72v3.11c1.3-1.97,3.34-3.31,5.85-3.31v6.05h-1.57c-2.71,0-4.28,.94-4.28,4.15v8.66Z"/></g></g><g><g><path class="ab" d="M317.5,326.72l-20.05-131.49h-90.3l21.64,139.34c1.47,9.44,9.34,16.09,19.06,16.09h151.83l1.12-12.77h-70.12c-6.73,0-12.18-4.62-13.18-11.16Z"/><path class="e" d="M232.04,326.72l-19.31-126.63c-.44-2.85-2.81-4.87-5.75-4.87h-.18c-4.11,0-7.48,3.85-6.86,7.85l20.43,131.49c1.47,9.44,9.34,16.09,19.06,16.09h97.79l1.12-12.77h-93.12c-6.73,0-12.18-4.62-13.18-11.16Z"/><g><line class="j" x1="293.16" y1="350.65" x2="293.16" y2="422.43"/><g><path class="j" d="M252.93,428.77h0c0-3.5,2.84-6.34,6.34-6.34h67.79c3.5,0,6.34,2.84,6.34,6.34h0"/><path class="j" d="M286.23,428.77h0c0-3.5,2.84-6.34,6.34-6.34"/><g><path class="e" d="M259.33,435.17c0,3.54-2.87,6.4-6.4,6.4s-6.4-2.87-6.4-6.4,2.87-6.4,6.4-6.4,6.4,2.87,6.4,6.4Z"/><g class="ae"><path class="al" d="M255.28,435.17c0,1.3-1.05,2.35-2.35,2.35s-2.35-1.05-2.35-2.35,1.05-2.35,2.35-2.35,2.35,1.05,2.35,2.35Z"/></g></g><path class="e" d="M292.63,435.17c0,3.54-2.87,6.4-6.4,6.4s-6.4-2.87-6.4-6.4,2.87-6.4,6.4-6.4,6.4,2.87,6.4,6.4Z"/><g class="ae"><path class="al" d="M288.58,435.17c0,1.3-1.05,2.35-2.35,2.35s-2.35-1.05-2.35-2.35,1.05-2.35,2.35-2.35,2.35,1.05,2.35,2.35Z"/></g><g><path class="e" d="M339.8,435.17c0,3.54-2.87,6.4-6.4,6.4s-6.4-2.87-6.4-6.4,2.87-6.4,6.4-6.4,6.4,2.87,6.4,6.4Z"/><g class="ae"><path class="al" d="M335.75,435.17c0,1.3-1.05,2.35-2.35,2.35s-2.35-1.05-2.35-2.35,1.05-2.35,2.35-2.35,2.35,1.05,2.35,2.35Z"/></g></g></g></g></g><g><g><path class="ao" d="M363.74,209.34l22.89-34.19,7.09,1.48c-5.42,18.25-9,25.47-9,25.47"/><path class="ao" d="M390.07,182.29l3.65-5.66s6.79-1.56,9.26-2.82c2.47-1.26,4.11-3.49,4.8-5.38,.53-1.45,.3-5.69-.32-5.76-1.46-.16-4.37,5.28-5.74,5.6-1.36,.32-5.78-.01-8.22,.31-4.09,.54-5.82,4.37-5.82,4.37l-3.74,6.79"/><polyline class="ah" points="378.7 185.16 382.71 179.33 393.11 184 389.81 192.85"/><path class="ac" d="M295.19,172.97s16.95-7.8,31.87,5.48c14.93,13.28,25.03,25.61,30.51,29.61l22.49-25.87,12.56,5.9c-3.31,18.73-12.61,48.61-35.35,51.69-24.61,3.33-60.7-27.01-60.7-27.01"/><line class="n" x1="350.28" y1="216.65" x2="357.57" y2="208.06"/></g><path class="t" d="M386.23,430.76l-1.9,7.31c-.46,1.77,.88,3.51,2.71,3.51h22.14c1.33,0,2.41-1.08,2.41-2.41h0c0-1.05-.68-1.98-1.68-2.3l-15.13-6.11"/><path class="ao" d="M373.47,316.62c-3.53,37.15,12.76,114.14,12.76,114.14,0,0,3.87,4.68,8.55,0,0,0,3.93-73.41,8.06-106.41"/><path class="an" d="M320.65,273.1l25.41,13.33v.26s51.85-3.48,59.7,15.03c12.28,28.99,14.37,123.27,14.37,123.27h-37.95s-14.12-79.19-18.95-84.02c-4.83-4.83-24.74-4.47-61.36-4.47-41.13,0-21.05-53.03-5.74-57.58"/><path class="f" d="M384.8,424.99s-11.28-81.72-19.57-87.71c-10.12-7.32-57.92-2.54-57.92-2.54"/><path class="t" d="M306.65,430.76l-1.9,7.31c-.46,1.77,.88,3.51,2.71,3.51h22.14c1.33,0,2.41-1.08,2.41-2.41h0c0-1.05-.68-1.98-1.68-2.3l-15.13-6.11"/><path class="ao" d="M310.33,316.62c-3.54,37.15-3.69,114.14-3.69,114.14,0,0,3.87,4.68,8.55,0,0,0,13.32-73.41,17.46-106.41"/><g><path class="q" d="M275.83,284.77s66.65,1.07,75.37,21.27c10.72,24.83-6.95,118.95-6.95,118.95h-40.17v-84.2c0-1.63-1.28-3.1-2.91-3.05-5.56,.15-17.98,.15-33.74,.15-41.13,0-21.05-64.01-5.74-68.56"/><path class="f" d="M275.83,284.77s66.65,1.07,75.37,21.27c2.91,6.73,4.42,18.19,3.64,31.85"/><path class="i" d="M309.68,424.99s.41-84.52-1.53-89.04c-2.7-6.27-11.91-3.19-33.27-3.19-41.13,0-24.37-58.88-9.06-63.43"/><path class="i" d="M250.23,295.06s21.12,.51,24.31-2.69,0-17.7,0-17.7"/><path class="p" d="M249.71,297.89s24.11,.51,27.76-2.69,0-17.73,0-17.73"/></g><g><path class="ac" d="M245.64,196.79s-5.06,89.9,2.6,89.9,92.83-.26,97.82-.26-6.69-76.88-23.51-93.12c0,0-24.95-27.07-35.94-24.48s-40.96,27.96-40.96,27.96Z"/><line class="n" x1="340.65" y1="237.68" x2="330.08" y2="194.33"/></g><g><path class="ao" d="M202.56,213.07l-22.89-34.19-7.09,1.48c5.42,18.25,9,25.47,9,25.47"/><path class="ao" d="M176.23,186.01l-3.65-5.66s-6.79-1.56-9.26-2.82c-2.47-1.26-4.11-3.49-4.8-5.38-.53-1.45-.3-5.69,.32-5.76,1.46-.16,4.37,5.28,5.74,5.6,1.36,.32,5.78-.01,8.22,.31,4.09,.54,5.82,4.37,5.82,4.37l3.74,6.79"/><polyline class="ah" points="187.6 188.89 183.58 183.06 173.18 187.73 176.48 196.58"/><path class="ac" d="M277.11,173.48s-16.75-11.91-34.04,2.72c-16.12,13.63-26.86,41.14-30.46,41.14-2.5,0-18.01-19.78-27.27-31.88l-11.01,5.89c6.94,21.19,22.07,57.24,44.71,57.24,17.76,0,54.24-41.61,54.24-41.61"/><line class="n" x1="244.18" y1="235.28" x2="271.17" y2="212.77"/></g><g><polyline class="ag" points="278.72 175.61 294.82 192.85 296.92 172.92"/><path class="ao" d="M291.65,158.2l4.53,9.92s1.82,5.68-5.72,8.26c-8.27,2.82-13.34-2.9-13.34-2.9l-1.19-15.57"/><path class="r" d="M276.68,167.81s5.96,7.46,13.78,8.57l-5.68,8.43c-4.6-2.59-10.23-12.65-10.23-12.65l2.13-4.34Z"/><path class="r" d="M295.7,166.76s-.95,5.33-5.25,9.62l6.47,4.89c1.49-3.66,1.32-9.36,1.32-9.36l-2.54-5.15Z"/><path class="ao" d="M298.36,142.18s4.27,16.36-2.14,20.5c-6.42,4.14-17.58-2.16-18.22-4.21-.64-2.05-3.56-19.52,.63-20.83,7.44-2.33,17.55-2.43,19.74,4.55Z"/><g><g><path class="t" d="M298.22,147.49c.11,.45-.17,.9-.62,1-.45,.11-.9-.17-1-.62-.11-.45,.17-.9,.62-1,.45-.11,.9,.17,1,.62Z"/><path class="t" d="M296.79,142.61c.28,.04,1.54,.17,1.27,.79-.12,.28-.56,.27-.8,.25-.26-.01-.52-.05-.76,.03,.07,.07,.12,.16,.16,.25,.08,.19-.54,.21-.61,.21-.62,0-1.36-.11-2.11,.39,.48-1.77,2.39-1.99,2.85-1.93Z"/><path class="t" d="M287.93,149.75c.03,.46,.42,.81,.88,.79,.46-.03,.81-.42,.79-.88-.03-.46-.42-.81-.88-.79-.46,.03-.81,.42-.79,.88Z"/><path class="t" d="M285.46,146.45c-.6,.32-1.11,.76-.97,1.26,.11,.4,.5,.3,.75,.1,.41-.32,.87-.57,1.37-.73-.22,.18-.35,.47-.33,.75,1.56-.15,2.92-1.5,3.09-3.06-.01,.11-1.02,.73-1.17,.8-.88,.41-1.85,.4-2.73,.87Z"/></g><path class="k" d="M294.06,148.46s2.28,5.74,1.47,6.24c-.81,.5-3.67,.43-3.67,.43"/></g><path class="k" d="M294.15,163.63s-6.5,2.51-12.21-2.05"/><path class="k" d="M290.45,159.79s.58-2.53,4.74-2.53"/><path class="t" d="M301.97,133.4c-.07-.78-.19-1.61-.73-2.17-.61-.65-1.6-.78-2.49-.79-3.14-.02-6.27,.98-8.82,2.81,.7-.61,1.39-1.21,2.09-1.82,.55-.48,1.79-1.24,1.19-2.14-.52-.79-2.01-.34-2.77-.35-3.58-.04-7.03,1.23-10.33,2.5-1.63,.62-3.26,1.26-4.73,2.19-1.47,.93-2.78,2.2-3.49,3.79-.62,1.39-.74,2.96-.73,4.48,.02,2.74,.45,5.46,.88,8.17,.47,2.95,1.18,8.77,5.14,9.13,.77,.07,1.61,.12,2.24-.34,.62-.45,.83-1.26,.93-2.02,.15-1.23,.06-2.49-.23-3.69,.74,.4,1.45,1.08,2.28,.95,.28-.04,.56-.19,.65-.45,.06-.17,.04-.35,.02-.53-.31-2.83-.48-5.64-.66-8.48,4.06-.86,8.14-1.6,12.25-2.22,1.82-.27,3.75-.57,5.16-1.75,2.02-1.69,2.37-4.66,2.14-7.28Z"/><path class="ao" d="M281,154.24c-.67-1.66-1.85-3.67-3.7-2.54-.65,.4-1.02,1.25-1.27,2.08-.85,2.75,1.13,6.99,3.82,6.59,1.31-.19,2.04-1.75,2.58-3.04"/></g></g></g><g><path class="w" d="M526.15,332.89c-.01-8.91,3.8-17.75,10.28-23.86,3.2-3.01,7.02-5.34,11.14-6.85,2.32-.86,13.45-1.7,13.45-1.7,0,0-1.3,8.49-3.51,12.77-5.17,9.98-15.39,18.36-31.36,19.64"/><path class="am" d="M558.88,358.24c4.02-4.93,9.84-8.37,16.1-9.52,6.26-1.15,12.92,0,18.43,3.18,.18,.1,.37,.23,.42,.43,.06,.24-.11,.47-.28,.65-5.17,5.79-13.19,8.91-20.91,8.14-3.39-.34-10.51-1.83-13.76-2.88"/><path class="w" d="M567.82,344.69c0-7.77,2.59-14.74,7.15-19.3s11.06-6.68,17.99-5.86c.23,.03,.48,.07,.66,.28,.22,.25,.23,.6,.21,.89-.39,9.35-5.08,17.09-12.23,20.2-3.14,1.36-10.27,3.33-13.78,3.79"/><path class="am" d="M579.88,330.8c3.08-4.96,6.82-9.5,11.1-13.46,1.72-1.59,3.54-3.11,5.61-4.22,6.69-3.59,14.94-2.48,22.13-.05-2.86,5.43-6.59,10.75-12.08,13.5-2.43,1.22-5.09,1.88-7.74,2.47-5.26,1.17-13.67,1.06-19.01,1.75"/><path class="w" d="M576.05,317.83c-13.38-7.01-15.36-21.63-15.7-27.04-.21-3.39,0-7.16,2.83-9.6,16.58,5.84,20.82,17.06,12.86,36.63"/><path class="w" d="M518.39,315.72c1.04-7.12,2-14.77-1.24-21.2-1.16-2.3-2.81-4.33-4.61-6.18-4.35-4.48-10.05-8.18-16.29-8.19-1.12,6.67,.23,13.73,3.75,19.51,3.51,5.78,9.15,10.24,15.59,12.31"/><path class="am" d="M557.31,362.3c-7.46-2.49-13.8-8.17-17.09-15.32-3.29-7.14-3.5-15.65-.55-22.94,.13-.32,.3-.68,.64-.79,.32-.1,.65,.06,.94,.23,11.54,6.63,19.44,25.94,16.07,38.82"/><path class="am" d="M525.94,322.97c-2.15-6.23-2.04-13.21,.32-19.37,2.36-6.15,6.94-11.43,12.7-14.62,2.35-1.3,4.9-2.28,6.99-3.98,.71,3.13,1.18,6.31,1.42,9.51,.24,3.16,.23,6.39-.61,9.45-2.17,7.91-9.46,13.29-16.78,16.98"/><path class="am" d="M516.27,321.77c-12.02,1.46-26.81-3.39-33.24-14.71,20.55-10.44,33.24,5.53,33.24,14.71"/><path class="am" d="M523.28,348.58c-2.69-9.23-9.79-16.8-18.33-19.56-8.54-2.77-18.29-.65-25.2,5.47-.29,.25-.6,.58-.57,.98,.02,.24,.15,.45,.28,.64,4.59,6.64,11.92,10.56,19.41,12.21,7.49,1.65,15.23,1.26,22.86,.69"/><path class="v" d="M507.83,299.37c6.23,6.23,10.12,14.13,13.02,22.35,3.01,8.51,5.2,17.33,6.95,26.18,3.69,18.67,4.66,37.57,6.81,56.43,.03,.27,.44,.28,.43,0-.82-19.21-2.89-38.7-6.71-57.54-1.87-9.2-4.22-18.39-7.57-27.17-2.9-7.58-6.79-14.81-12.72-20.45-.13-.13-.34,.07-.2,.2h0Z"/><path class="v" d="M529.93,356.32c-4.61-7.47-12.26-11.89-20.21-15.12-8.88-3.61-18.95-5.87-28.58-5.23-.23,.02-.24,.36,0,.37,17.52,.78,37.58,5.03,48.37,20.22,.18,.25,.59,.03,.42-.25h0Z"/><path class="v" d="M526.29,338.78c-.08-7.04-.81-14.1,.57-21.07,1.29-6.48,3.88-12.35,7.75-17.69,.11-.15-.14-.35-.26-.2-9.41,10.58-9.52,25.7-8.29,38.96,.01,.14,.23,.15,.23,0h0Z"/><path class="v" d="M498.41,310.92c5.14,.64,9.69,4.09,13.57,7.29,3.87,3.18,7.33,6.83,11.19,10.02,.16,.13,.38-.08,.23-.23-3.89-3.89-8.07-7.66-12.42-11.03-3.66-2.83-7.83-5.72-12.57-6.15-.07,0-.06,.09,0,.1h0Z"/><path class="v" d="M552.62,379.9c2.82-14.62,8.7-28.01,18.46-39.37,4.71-5.48,10.12-10.35,16.1-14.4,6.27-4.26,12.96-7.15,20.02-9.81,.29-.11,.18-.55-.13-.47-14.19,3.7-27.27,13.5-36.64,24.54-9.35,11.01-16.44,25-18.18,39.46-.03,.21,.33,.26,.37,.05h0Z"/><path class="v" d="M568.88,292.52c7.03,14.8,9.64,31.59,2.52,46.82-.14,.3,.28,.56,.45,.26,8.55-14.22,4.4-33.37-2.61-47.29-.12-.24-.47-.03-.36,.21h0Z"/><path class="a`" d="M578.03,370.19v11.72c0,46.46-12.23,59.67-12.23,59.67h-37.87s-12.23-13.21-12.23-59.67v-11.72h62.34Z"/></g><g><g><line class="j" x1="171.35" y1="441.57" x2="203.47" y2="287.58"/><line class="j" x1="235.58" y1="441.57" x2="203.47" y2="287.58"/></g><g><line class="j" x1="495.72" y1="441.57" x2="527.84" y2="287.58"/><line class="j" x1="559.96" y1="441.57" x2="527.84" y2="287.58"/></g><rect class="ak" x="172.39" y="278.37" width="383.62" height="9.21"/><g><path class="ab" d="M537.52,260.81h-135.57c-2.42,0-4.25-2.19-3.83-4.57l15.58-87.61c.49-2.78,2.91-4.8,5.73-4.8h135.57c2.42,0,4.25,2.19,3.83,4.57l-15.58,87.61c-.49,2.78-2.91,4.8-5.73,4.8Z"/><path class="y" d="M540.68,260.81h-135.57c-2.42,0-4.25-2.19-3.83-4.57l15.58-87.61c.49-2.78,2.91-4.8,5.73-4.8h135.57c2.42,0,4.25,2.19,3.83,4.57l-15.58,87.61c-.49,2.78-2.91,4.8-5.73,4.8Z"/><path class="af" d="M515.73,260.81h-78.3c-1.4,0-2.45-1.26-2.21-2.64l9-50.6c.28-1.6,1.68-2.77,3.31-2.77h78.3c1.4,0,2.45,1.26,2.21,2.64l-9,50.6c-.28,1.6-1.68,2.77-3.31,2.77Z"/><path class="aj" d="M517.61,260.81h-78.3c-1.4,0-2.45-1.26-2.21-2.64l9-50.6c.28-1.6,1.68-2.77,3.31-2.77h78.3c1.4,0,2.45,1.26,2.21,2.64l-9,50.6c-.28,1.6-1.68,2.77-3.31,2.77Z"/><rect class="al" x="468.48" y="231.05" width="31.78" height="29.76"/><path class="ab" d="M498.43,231.05h-29.96v8.55l8.18,33.94h31.8l-10.02-42.49Zm-7.69,33.43c-3.56,0-7.33-4.15-8.41-9.28s.93-9.28,4.49-9.28,7.33,4.15,8.41,9.28-.93,9.28-4.49,9.28Z"/><path class="ab" d="M450.95,273.54h71.18v4.83h-76.02c0-2.67,2.16-4.83,4.83-4.83Z"/><rect class="y" x="465.23" y="273.54" width="56.91" height="4.83"/><path class="y" d="M500.27,231.05h-31.8l10.02,42.49h31.8l-10.02-42.49Zm-7.8,33.43c-3.56,0-7.33-4.15-8.41-9.28-1.08-5.12,.93-9.28,4.49-9.28s7.33,4.15,8.41,9.28-.93,9.28-4.49,9.28Z"/><g class="aa"><polygon class="al" points="426.02 172.46 424.14 183.05 426.02 183.05 427.9 172.46 426.02 172.46"/><polygon class="al" points="431.47 172.46 429.59 183.05 431.47 183.05 433.35 172.46 431.47 172.46"/><polygon class="al" points="436.92 172.46 435.04 183.05 436.92 183.05 438.8 172.46 436.92 172.46"/><polygon class="al" points="442.37 172.46 440.49 183.05 442.37 183.05 444.25 172.46 442.37 172.46"/><polygon class="al" points="447.82 172.46 445.94 183.05 447.82 183.05 449.7 172.46 447.82 172.46"/></g><g class="aa"><polygon class="al" points="497.55 172.46 495.67 183.05 497.55 183.05 499.43 172.46 497.55 172.46"/><polygon class="al" points="503.28 172.46 501.39 183.05 503.28 183.05 505.16 172.46 503.28 172.46"/><polygon class="al" points="509 172.46 507.12 183.05 509 183.05 510.89 172.46 509 172.46"/><polygon class="al" points="514.73 172.46 512.85 183.05 514.73 183.05 516.61 172.46 514.73 172.46"/><polygon class="al" points="520.46 172.46 518.58 183.05 520.46 183.05 522.34 172.46 520.46 172.46"/><polygon class="al" points="526.19 172.46 524.3 183.05 526.19 183.05 528.07 172.46 526.19 172.46"/><polygon class="al" points="531.91 172.46 530.03 183.05 531.91 183.05 533.8 172.46 531.91 172.46"/><polygon class="al" points="537.64 172.46 535.76 183.05 537.64 183.05 539.52 172.46 537.64 172.46"/><polygon class="al" points="543.37 172.46 541.48 183.05 543.37 183.05 545.25 172.46 543.37 172.46"/><polygon class="al" points="549.09 172.46 547.21 183.05 549.09 183.05 550.98 172.46 549.09 172.46"/></g></g><g><g class="ai"><path class="x" d="M280.45,254.36s.88-.16,1.24-.66c.74-1.03-.49-2.12-1.29-2.64-1.03-.66-2.44-.88-2.94-2.14-.56-1.42,.41-3,1.58-3.78,.99-.65,2.15-.98,3.26-1.4,1.24-.46,2.49-1.21,3.21-2.37,.9-1.45,.72-3.31,.84-4.94,.46-6.38,6.99-9.55,12.48-9.68,2.75-.06,6.95,.92,8.77,3.05,.61,.72,1.08,1.57,1.25,2.5,.27,1.44-.29,2.77-1.22,3.84-.94,1.08-2.24,1.71-3.27,2.68-1.07,1-.31,2.06-.55,3.26-.27,1.33-1.16,1.9-2.32,2.54-2.44,1.36-5.31,1.7-7.96,2.44-.83,.23-1.66,.51-2.33,1.05-.87,.7-1.36,1.74-2.01,2.64-1.2,1.63-3.01,2.8-4.99,3.2"/></g><path class="u" d="M295.74,270.43h-5.21v-2.49h5.21c1.68,0,3.05-1.37,3.05-3.05v-4.28c0-1.68-1.37-3.05-3.05-3.05h-5.21v-2.49h5.21c3.05,0,5.53,2.48,5.53,5.53v4.28c0,3.05-2.48,5.53-5.53,5.53Z"/><path class="u" d="M273.4,251.56h21.04v19.29c0,3.38-2.74,6.12-6.12,6.12h-8.79c-3.38,0-6.12-2.74-6.12-6.12v-19.29h0Z"/><path class="aj" d="M269.99,273.42s.2,4.95,7.89,4.95h12.06c7.69,0,7.89-4.95,7.89-4.95h-27.84Z"/></g><g><g><rect class="ab" x="327.75" y="276.39" width="111.28" height="1.98"/><rect class="ab" x="331.56" y="274.8" width="7.97" height="1.59"/><rect class="ab" x="343.63" y="274.8" width="7.97" height="1.59"/><rect class="ab" x="355.7" y="274.8" width="7.97" height="1.59"/><rect class="ab" x="367.77" y="274.8" width="7.97" height="1.59"/><rect class="ab" x="379.84" y="274.8" width="7.97" height="1.59"/><rect class="ab" x="391.91" y="274.8" width="7.97" height="1.59"/><rect class="ab" x="403.98" y="274.8" width="7.97" height="1.59"/><rect class="ab" x="416.05" y="274.8" width="7.97" height="1.59"/><rect class="ab" x="428.13" y="274.8" width="7.97" height="1.59"/></g><g><rect class="y" x="329.21" y="276.39" width="111.28" height="1.98"/><rect class="y" x="333.01" y="274.8" width="7.97" height="1.59"/><rect class="y" x="345.08" y="274.8" width="7.97" height="1.59"/><rect class="y" x="357.16" y="274.8" width="7.97" height="1.59"/><rect class="y" x="369.23" y="274.8" width="7.97" height="1.59"/><rect class="y" x="381.3" y="274.8" width="7.97" height="1.59"/><rect class="y" x="393.37" y="274.8" width="7.97" height="1.59"/><rect class="y" x="405.44" y="274.8" width="7.97" height="1.59"/><rect class="y" x="417.51" y="274.8" width="7.97" height="1.59"/><rect class="y" x="429.58" y="274.8" width="7.97" height="1.59"/></g></g></g><g><path class="w" d="M170.86,353.02c1.38-5.49,.77-11.46-1.7-16.55-2.47-5.09-6.78-9.27-11.95-11.57-2.11-.94-4.37-1.59-6.27-2.89-.37,2.73-.54,5.49-.51,8.24,.03,2.73,.27,5.49,1.22,8.04,2.44,6.61,9.08,10.67,15.62,13.29"/><path class="v" d="M171.66,370.74c.2-12.79,.37-27.39-9.69-36.91-.16-.15-.38,.07-.24,.24,4.51,5.24,7.74,11.58,8.7,18.48,.84,6.03,.5,12.14,1,18.19,.01,.14,.22,.15,.23,0h0Z"/><path class="w" d="M155.32,387.51c-.96-7.59-5.17-14.71-11.36-19.21-3.05-2.22-6.56-3.78-10.24-4.63-2.07-.48-11.64,.02-11.64,.02,0,0,2.03,7.09,4.38,10.5,5.49,7.94,15.11,13.97,28.86,13.32"/><path class="am" d="M146.95,363.06c-.25-4.59-1.09-9.15-2.5-13.51-.57-1.75-1.23-3.49-2.21-5.04-3.16-5.02-9.07-7.36-14.76-8.39-.07,4.84,.48,9.93,3.15,13.91,1.18,1.76,2.72,3.22,4.27,4.63,3.09,2.8,8.74,5.9,12.06,8.4"/><path class="am" d="M179.25,346.34c-.89-6.12-1.72-12.69,1.07-18.21,1-1.98,2.42-3.72,3.96-5.31,3.74-3.85,8.63-7.03,13.99-7.04,.96,5.73-.2,11.79-3.22,16.76-3.02,4.97-10.27,12.01-15.8,13.79"/><path class="am" d="M169.42,381.88c5.69,1.18,11.84-.09,16.6-3.43s8.04-8.69,8.87-14.44c.04-.25,.06-.55-.11-.74-.16-.18-.44-.2-.68-.2-9.83-.05-22.04,9.34-24.67,18.81"/><path class="am" d="M149.19,359.76c8.1-4.56,13.31-13.7,13.46-23.62-5.85-.32-10.25,3.27-12.8,6.38-3.55,4.32-3.85,11.91-.66,17.25"/><path class="am" d="M155.08,375.78c-2.16-5.39-1.48-11.83,1.76-16.65s8.95-7.88,14.76-7.9c.24,0,.52,.02,.66,.22,.08,.12,.09,.27,.1,.41,.22,4.98-1.97,9.83-5.11,13.7-3.14,3.87-7.18,6.89-11.23,9.78"/><path class="v" d="M188.13,332.1c-10.79,10.25-14.57,26.69-17.44,40.74-3.31,16.23-5.17,33.06-5.78,49.61-.01,.28,.4,.27,.43,0,1.94-16.2,2.7-32.44,5.88-48.49,2.83-14.32,6.47-30.94,17.11-41.65,.13-.13-.07-.33-.2-.2h0Z"/><path class="v" d="M155.07,384.35c-.17-4.86,.65-9.24,1.75-13.94,.05-.19-.24-.33-.34-.14-2.03,3.92-2.62,9.83-1.9,14.15,.05,.27,.49,.21,.48-.07h0Z"/><path class="v" d="M155.74,343c-6.48,5.87-8.13,18.17-5.48,26.14,.06,.2,.36,.12,.31-.09-1.91-8.32-1.28-19.63,5.25-25.98,.05-.05-.02-.12-.07-.07h0Z"/><path class="v" d="M158.1,412.54c.35-11.28-1.51-23.12-4.61-33.94-3.06-10.67-7.97-22.25-16.11-30.08-.23-.22-.53,.1-.34,.34,3.63,4.49,7.01,8.93,9.68,14.09,2.72,5.26,4.82,10.84,6.42,16.54,3.06,10.87,3.93,21.84,4.6,33.05,.01,.24,.37,.24,.38,0h0Z"/><path class="a`" d="M191.19,392.88v7.99c0,31.69-10.51,40.7-10.51,40.7h-32.53s-10.51-9.01-10.51-40.7v-7.99h53.54Z"/></g><line class="g" x1="119.78" y1="441.57" x2="630.22" y2="441.57"/></g></g><g id="d"/></svg>