<svg id="Layer_1" data-name="Layer 1" xmlns="http://www.w3.org/2000/svg" viewBox="0 0 537.48 113.45"><defs><style>.cls-1{fill:#9d9e9e;}.cls-2{fill:#b2b3b3;}.cls-3{fill:#c5c6c6;}.cls-4{fill:#26244a;}.cls-5{fill:#0f659e;}</style></defs><g id="Layer_1-2" data-name="Layer 1-2"><path class="cls-1" d="M0,47.1C0,74.4,21.1,95.9,48.7,95.9c20.4-1.5,31-8.1,39.3-26.7C78,79.5,77.4,80.1,66.6,84c-18.7,5.6-34.1-1.4-43.8-11C-3.6,46.8,13.6,6.9,40.8,0,19.4.9,0,23.8,0,47.1Z"/><path class="cls-2" d="M78.1,74.7C62.8,78.5,54,80.9,40.7,71.6c-34.2-23.8-10.6-82,38-63.7C65.4-1,49.5-2.8,35.4,5.2a41,41,0,0,0-.7,71.4C47.1,84.1,68.3,84.2,78.1,74.7Z"/><path class="cls-3" d="M55.7,73.8c-7.8-4.9-14.9-7.6-18.6-20.3C29,25.7,60.5,2.4,85.4,20.8c3.8,3.2,4.5,3.9,6.4,7.5-.3-12.1-30.7-33.2-53.7-9.9C20.2,36.3,31.6,71.2,55.7,73.8Z"/><g id="_739590561456" data-name=" 739590561456"><path class="cls-4" d="M116.3,57.9a102.75,102.75,0,0,1-11.1,0H89c-1.3,10,3.9,7.3,28.9,7.8-1.9,14.2-4.4,12-14.3,12-3.1,0-10.3-.5-12.7.7-1.9.9-6.1,4.9-6.2,7.2,9.6-.2,21.8.8,30.9-.3,5.2-.6,7.4-2.3,8.9-6.8,1.2-3.5,2.1-9,2.8-12.8,8.9-.5,33.9.6,39.7-.5,4.6-.9,5.7-2.4,7.1-6.3.1-.3.3-.7.4-1H157.6c-7,.1-18.6.1-24.7,0Z"/><path class="cls-5" d="M44.2,57.9c-1.2,8.6,4.6,7.8,14.6,7.8H83c.3-.9,1-4,1.9-7.8H61.1c-1.1,0-2.3.1-3.3,0Z"/><path class="cls-5" d="M102.7,38c1-1.9.9-3.1,9.4-3.1h12.4L124,38l-4.2,18.8-.1.2h9.8v-.2c.5-4.3,2.9-14.5,3.6-17.7.4-1.7,2.5-11,2.7-12.2-8.6.1-17.3,0-25.9,0-9.4,0-14.5.1-16.4,9.5C92.4,40.2,91.6,45,90.8,49c-.7,3.1-1.2,5.7-1.5,7.7l-.1.3h15.1l-1.8-.3a4.16,4.16,0,0,1-2.5-1.2C98.2,53,101.7,41.58,102.7,38ZM175,57.1c1-3,2-7,1.2-10.1-1-3.9-4.3-4.6-8.9-4.6H153.8c-5.3,0-8.6,0-6.5-5.6,1.2-1.6.9-1.8,9-1.8h11c4.1,0,6.7.6,9.5-1.7,1.3-1.1,4.1-3.9,4.8-6.2-6-.1-32.5-.7-37.6.9s-8.5,12.2-7.2,17c.7,2.6,3.5,4.4,6.7,4.8,4.4.7,19.8-.6,22.3.8,2.9,1.6,1.2,5.4-2,6.3a2.25,2.25,0,0,1-1,.1c-.2,0-.5.1-.8.1Z"/><path class="cls-4" d="M89.5,35.5a10.18,10.18,0,0,0,0-5.2c-1.2-3.9-9.6-3.2-13.8-3.2-7.3,0-15.8-.4-23,0a8.73,8.73,0,0,0,2.4,5.2c4.8,5.1,9.8,1.3,22,2.9,3.1,2.1,2,2.9,1.6,6.9-7,0-17-.6-23.6.3-7.7,1-8.8,4.9-10.5,13.6-.1.4-.1.7-.2,1H57c-2-.3-3.3-1.3-2.4-4.2,1.2-3.9,5.6-3,9.7-3H76.7c.1,1.6-.9,5.5-1.3,7.2h9.7C87,48.7,89.3,36.9,89.5,35.5Z"/></g></g><path class="cls-1" d="M66.08,88.54V90.6h-11v1.27h3.32V95c2.09,1.41,4.18,4,7.47,7.33,2.72,2.72,8.59,9.46,11.74,10.52,2.46.87,9.64,1.05,11.75-.88C82.07,104.93,73.87,95.52,66.08,88.54Z"/><path class="cls-4" d="M210.05,29.31c8.89,0,15.6,5,17.73,13.1h-10a8.23,8.23,0,0,0-7.83-4.79c-5.59,0-9.42,4.15-9.42,10.76s3.83,10.75,9.42,10.75a8.22,8.22,0,0,0,7.83-4.79h10c-2.13,8.09-8.84,13-17.73,13-11,0-18.8-7.83-18.8-19S199,29.31,210.05,29.31Z"/><path class="cls-5" d="M233.38,27.71h9.1V41.4a11,11,0,0,1,9.16-4.31c6.77,0,11.29,4.68,11.29,12.67V67.12h-9.05V51c0-4-2.24-6.28-5.7-6.28s-5.7,2.24-5.7,6.28V67.12h-9.1Z"/><path class="cls-5" d="M280.56,37c4.42,0,7.57,2,9.16,4.63v-4.2h9.11V67.12h-9.11V62.91a10.5,10.5,0,0,1-9.21,4.64c-7.24,0-13.05-6-13.05-15.34S273.27,37,280.56,37Zm2.67,7.93c-3.41,0-6.5,2.56-6.5,7.3s3.09,7.4,6.5,7.4,6.49-2.61,6.49-7.35S286.69,44.91,283.23,44.91Z"/><path class="cls-5" d="M306.87,45h-3.62V37.41h3.62V30.16H316v7.25h6V45h-6V56.9c0,1.75.75,2.5,2.77,2.5H322v7.72h-4.64c-6.17,0-10.49-2.61-10.49-10.33Z"/><path class="cls-4" d="M351.87,67.49c-8,0-14.32-4-14.59-11.55H347a4.3,4.3,0,0,0,4.64,4.26c2.66,0,4.36-1.33,4.36-3.52,0-6.92-18.69-3.19-18.58-16.45,0-7.09,5.8-11,13.63-11,8.15,0,13.63,4.05,14,11.19h-9.85a4,4,0,0,0-4.32-3.89c-2.18,0-3.83,1.06-3.83,3.41,0,6.5,18.48,3.57,18.48,16.08C365.51,62.27,360.61,67.49,351.87,67.49Z"/><path class="cls-5" d="M384.31,67.55c-8.74,0-15-5.86-15-15.29S375.47,37,384.31,37c8.68,0,14.8,5.75,14.8,14.8a22.34,22.34,0,0,1-.16,2.67H378.34c.32,3.88,2.72,5.69,5.65,5.69a4.85,4.85,0,0,0,4.74-2.87h9.69C397,63.07,391.71,67.55,384.31,67.55ZM378.4,49.39h11.39c0-3.25-2.55-5.12-5.59-5.12A5.64,5.64,0,0,0,378.4,49.39Z"/><path class="cls-5" d="M413,67.12h-9.1V37.41H413v5a11.09,11.09,0,0,1,9.32-5.27v9.63h-2.5c-4.31,0-6.82,1.5-6.82,6.61Z"/><path class="cls-5" d="M433.63,37.41l6.44,21.19,6.44-21.19h9.69L445.66,67.12H434.42L423.88,37.41Z"/><path class="cls-5" d="M459.19,29.42c0-2.77,2.18-5,5.43-5s5.38,2.19,5.38,5-2.18,4.9-5.38,4.9S459.19,32.13,459.19,29.42Zm.85,8h9.11V67.12H460Z"/><path class="cls-5" d="M488.85,37c7.46,0,12.73,4.1,14.27,11.18h-9.69a4.69,4.69,0,0,0-4.74-3.41c-3.25,0-5.48,2.56-5.48,7.51s2.23,7.51,5.48,7.51a4.61,4.61,0,0,0,4.74-3.41h9.69c-1.54,6.87-6.81,11.19-14.27,11.19-8.73,0-14.91-5.86-14.91-15.29S480.12,37,488.85,37Z"/><path class="cls-5" d="M521.18,67.55c-8.73,0-15-5.86-15-15.29S512.34,37,521.18,37c8.68,0,14.8,5.75,14.8,14.8a22.34,22.34,0,0,1-.16,2.67h-20.6c.31,3.88,2.71,5.69,5.64,5.69a4.84,4.84,0,0,0,4.74-2.87h9.69C533.85,63.07,528.58,67.55,521.18,67.55Zm-5.91-18.16h11.39c0-3.25-2.55-5.12-5.59-5.12A5.64,5.64,0,0,0,515.27,49.39Z"/></svg>