<svg width="30" height="30" viewBox="0 0 30 30" fill="none" xmlns="http://www.w3.org/2000/svg">
<rect width="30" height="30" rx="4" fill="#EAEAEA"/>
<path d="M19.8575 17.9415L11.874 9.95802C11.3471 9.43111 10.4849 9.43111 9.95802 9.95802C9.43111 10.4849 9.43111 11.3471 9.95802 11.874L17.9415 19.8575C18.4684 20.3844 19.3306 20.3844 19.8575 19.8575C20.3844 19.3306 20.3844 18.4684 19.8575 17.9415Z" fill="#1273EB"/>
<path d="M17.9415 9.958L9.95802 17.9415C9.43111 18.4684 9.43111 19.3306 9.95802 19.8575C10.4849 20.3844 11.3471 20.3844 11.874 19.8575L19.8575 11.874C20.3844 11.3471 20.3844 10.4849 19.8575 9.958C19.3306 9.43109 18.4684 9.43109 17.9415 9.958Z" fill="#1273EB"/>
</svg>
