<svg width="30" height="30" viewBox="0 0 30 30" fill="none" xmlns="http://www.w3.org/2000/svg">
<rect width="30" height="30" rx="4" fill="#EAEAEA"/>
<path d="M20.6452 8.67749H9.35484C8.60968 8.67749 8 9.28717 8 10.0323C8 10.7775 8.60968 11.3872 9.35484 11.3872H20.6452C21.3903 11.3872 22 10.7775 22 10.0323C22 9.28717 21.3903 8.67749 20.6452 8.67749Z" fill="#1273EB"/>
<path d="M20.6452 13.6453H9.35484C8.60968 13.6453 8 14.2549 8 15.0001C8 15.7453 8.60968 16.3549 9.35484 16.3549H20.6452C21.3903 16.3549 22 15.7453 22 15.0001C22 14.2549 21.3903 13.6453 20.6452 13.6453Z" fill="#1273EB"/>
<path d="M20.6452 18.613H9.35484C8.60968 18.613 8 19.2227 8 19.9679C8 20.713 8.60968 21.3227 9.35484 21.3227H20.6452C21.3903 21.3227 22 20.713 22 19.9679C22 19.2227 21.3903 18.613 20.6452 18.613Z" fill="#1273EB"/>
</svg>
