<svg width="25" height="22" viewBox="0 0 25 22" fill="none" xmlns="http://www.w3.org/2000/svg">
<path d="M16.4435 0.437923C17.1641 0.724759 17.6737 1.24177 18.1305 1.99974L18.281 2.26134L18.8394 3.33204L18.8577 3.36194L18.8744 3.38796L18.9219 3.4528C19.1763 3.73 19.602 3.89746 19.883 3.89746C22.4572 3.89746 24.5597 5.91905 24.6886 8.46049L24.6948 8.70801V15.8633C24.6948 19.1626 22.0893 21.8549 18.8243 21.9943L18.5582 22H6.13666C2.83662 22 0.145046 19.3948 0.00566958 16.1295L0 15.8633V8.70801C0 6.05158 2.1546 3.89746 4.81179 3.89746C5.09179 3.89746 5.51815 3.72976 5.77296 3.4528L5.78174 3.44245L5.79272 3.42806L5.85622 3.33066L6.41302 2.26168C6.90933 1.35967 7.44923 0.756685 8.25039 0.437806C9.71851 -0.145955 14.9765 -0.145955 16.4435 0.437923ZM8.93502 2.15874C8.66166 2.26754 8.41417 2.51938 8.15005 2.95598L8.03572 3.15452L7.56051 4.07329L7.44355 4.28496C7.34592 4.44736 7.24825 4.58445 7.13674 4.70596C6.56824 5.32389 5.752 5.6808 5.02641 5.74059L4.81179 5.74957L4.60917 5.7564C3.13621 5.856 1.95856 7.03337 1.85894 8.50551L1.85211 8.70801V15.8633C1.85211 18.1504 3.64463 20.0195 5.90158 20.1415L6.13666 20.1479H18.5582C20.8448 20.1479 22.7143 18.3546 22.8364 16.0983L22.8427 15.8633V8.70801C22.8427 7.14263 21.6256 5.86052 20.0856 5.7564L19.883 5.74957L19.668 5.74058C18.9414 5.68079 18.1251 5.32379 17.5573 4.70514C17.4473 4.58524 17.3501 4.44913 17.2531 4.2881L17.2298 4.24818L17.202 4.1986L17.0586 3.92974L16.6587 3.15486C16.3886 2.66454 16.1413 2.36487 15.8743 2.21427L15.7586 2.15874L15.6112 2.10976C14.3405 1.75059 9.92042 1.76692 8.93502 2.15874ZM12.347 7.65441C15.0267 7.65441 17.1983 9.82605 17.1983 12.5057C17.1983 15.1854 15.0267 17.357 12.347 17.357C9.66739 17.357 7.49574 15.1854 7.49574 12.5057C7.49574 9.82605 9.66739 7.65441 12.347 7.65441ZM12.347 9.50652C10.6903 9.50652 9.34785 10.8489 9.34785 12.5057C9.34785 14.1625 10.6903 15.5049 12.347 15.5049C14.0038 15.5049 15.3462 14.1625 15.3462 12.5057C15.3462 10.8489 14.0038 9.50652 12.347 9.50652ZM19.1438 6.79132C19.8257 6.79132 20.3785 7.34414 20.3785 8.02606C20.3785 8.65928 19.9019 9.18117 19.2878 9.2525L19.1438 9.26081C18.4508 9.26081 17.8979 8.70799 17.8979 8.02606C17.8979 7.39284 18.3746 6.87095 18.9887 6.79963L19.1438 6.79132Z" fill="white"/>
</svg>
