<svg width="71" height="70" viewBox="0 0 71 70" fill="none" xmlns="http://www.w3.org/2000/svg">
<path d="M44.9281 39.2039C47.5676 39.2039 50.0425 37.1143 50.0425 37.1143L50.5924 38.4893C50.5924 38.4893 48.8327 40.249 48.8327 42.1187C48.8327 43.9883 51.5275 43.8237 54.4416 44.3736C57.3564 44.9235 56.6412 45.8586 56.6412 45.8586C56.6412 45.8586 51.7468 44.6122 51.7468 47.7836C51.7468 50.8451 56.9711 50.6431 56.9711 50.6431C56.9711 50.6431 52.4087 49.407 52.682 48.0036C53.1523 45.584 57.786 48.965 58.8166 47.316C59.3665 46.4362 59.7262 45.0881 59.666 42.9438C59.601 40.6108 58.5371 38.6235 57.6442 36.5305C57.4636 36.1072 57.3889 35.6825 57.6843 35.2785C57.7424 35.199 57.8136 35.1256 57.9015 35.08C58.0751 34.9901 58.2556 35.0537 58.4009 35.1658C58.7336 35.4231 58.8754 35.8637 59.0525 36.2289C59.3091 36.758 59.5761 37.2823 59.8382 37.8087C60.377 38.8926 60.9034 39.9841 61.4616 41.0576C61.4927 41.1171 61.5232 41.1766 61.555 41.2361C61.5847 41.2914 61.6359 41.3377 61.6857 41.3744C61.7023 41.3861 61.7196 41.3986 61.7383 41.4069C61.7507 41.4124 61.7653 41.418 61.7791 41.4152C61.7916 41.4124 61.7999 41.4055 61.8054 41.3945C61.8144 41.3779 61.8151 41.3564 61.8151 41.3384C61.8151 41.3059 61.8109 41.2734 61.8054 41.2409C61.7708 41.0375 61.6996 40.8404 61.6325 40.646C61.5958 40.5395 61.5578 40.433 61.5183 40.3272C61.4706 40.1971 61.4215 40.0678 61.3717 39.9391C61.3122 39.7842 61.2513 39.6299 61.1905 39.4757C61.1185 39.2938 61.0452 39.1119 60.9712 38.9306C60.8854 38.7197 60.799 38.5094 60.7118 38.2991C60.6115 38.0577 60.5105 37.8163 60.4096 37.5749C60.294 37.3003 60.1785 37.0264 60.0616 36.7525C59.9766 36.5526 59.8915 36.3527 59.8057 36.1528C59.5567 35.5704 60.2885 35.1077 60.7589 35.9052C61.0846 36.4571 63.1618 40.2891 63.2884 40.213C63.9572 39.8084 61.822 37.8212 62.6105 37.1613C63.3444 36.5471 65.1954 39.2965 65.47 42.1747C65.6872 44.4476 67.9158 44.9975 67.9137 46.9591C67.9096 51.2061 57.795 62.0816 57.795 62.0816L49.5472 51.5776C49.5472 51.5776 49.2809 58.5913 50.0508 64.5855C50.4921 68.0219 41.2434 70.0001 34.2041 70.0001C27.1647 70.0001 20.346 68.4051 19.6315 64.5558C18.917 60.7065 17.2666 54.8769 17.2666 54.8769C17.2666 54.8769 27.7153 45.1981 31.6192 45.1981C35.5231 45.1981 42.0679 47.9475 43.6076 47.9475C45.1474 47.9475 47.127 44.5928 43.2224 43.0531C39.3178 41.5134 40.2626 39.2039 42.595 39.2039C44.9281 39.2039 44.9281 39.2039 44.9281 39.2039Z" fill="url(#paint0_linear)"/>
<path d="M55.6633 29.5921L53.5195 31.4443L55.3718 33.5881L57.5156 31.7359L55.6633 29.5921Z" fill="url(#paint1_linear)"/>
<path d="M51.1053 40.8863L55.1934 43.0039L57.3109 38.9159L53.2229 36.7983L51.1053 40.8863Z" fill="url(#paint2_linear)"/>
<path d="M35.4147 0C15.8557 0 0 15.8557 0 35.4147C0 38.6082 0.429541 41.7001 1.22222 44.6432C3.34088 43.5151 5.71269 41.8938 6.67207 39.9376C8.57837 36.0517 13.4915 32.9723 17.8906 32.9723C22.2898 32.9723 18.6238 27.5467 17.2674 24.6865C15.911 21.8264 13.9314 4.44897 31.0155 4.44897C37.8342 4.44897 40.3188 7.67502 42.5958 10.9744C44.8736 14.2738 50.1526 13.4673 50.1526 21.0932C50.1526 28.7191 51.3029 28.5565 51.3029 28.5565C51.3029 28.5565 55.5049 26.0796 56.6047 25.7863C57.7045 25.493 58.291 29.9655 60.8572 30.1122C63.4234 30.2588 69.143 34.8779 70.1688 38.9845C70.2898 39.468 70.3957 39.8906 70.4897 40.2669C70.7076 38.6795 70.8287 37.0623 70.8287 35.4154C70.8293 15.8557 54.9737 0 35.4147 0ZM12.2084 19.5535H8.79833V16.1441H12.2077V19.5535H12.2084ZM14.7559 30.9H12.4097V28.5538H14.7559V30.9ZM42.3828 5.69263L42.324 4.44205L43.5746 4.38326L43.6334 5.63384L42.3828 5.69263ZM48.7049 7.84656L48.6322 6.30409L50.1747 6.23215L50.2466 7.77463L48.7049 7.84656ZM50.7308 11.7871L52.4725 10.282L53.9776 12.0237L52.236 13.5288L50.7308 11.7871ZM55.7539 21.291L53.8843 19.1274L56.0479 17.2577L57.9175 19.4213L55.7539 21.291ZM57.5862 15.5354L57.4956 13.5911L59.4399 13.5005L59.5312 15.4448L57.5862 15.5354ZM63.3459 28.0744L59.3549 25.5525L61.8768 21.5621L65.8671 24.0841L63.3459 28.0744Z" fill="url(#paint3_linear)"/>
<path d="M43.8833 35.4645C43.9905 35.1809 44.2001 34.9547 44.4519 34.7908C44.7431 34.6006 45.0799 34.4865 45.4161 34.4048C45.811 34.3087 46.2164 34.2561 46.621 34.2208C47.0506 34.1828 47.4822 34.1655 47.9131 34.1531C48.3212 34.1406 48.73 34.1337 49.1381 34.1157C49.4729 34.1005 49.8111 34.0818 50.1417 34.023C50.3333 33.9891 50.5346 33.9366 50.6985 33.8231C50.832 33.7311 50.9289 33.5907 50.9814 33.4385C51.0264 33.3064 51.0679 33.1086 50.9517 33.0007C50.8756 32.9302 50.7615 32.9087 50.6646 32.8845C50.5699 32.861 50.4751 32.8389 50.3804 32.8174C50.1646 32.769 49.9474 32.7261 49.7295 32.6888C49.2059 32.5981 48.6774 32.5373 48.1476 32.5075C47.5251 32.4723 46.8998 32.4806 46.2779 32.5359C45.5849 32.5981 44.8966 32.7192 44.2257 32.9046C43.8107 33.0194 43.4026 33.1577 43.0035 33.321C21.2262 42.2286 11.5481 44.5381 11.5481 44.5381L32.1556 36.0767C32.4925 35.9383 32.4745 35.4728 32.137 35.3366C31.309 35.0018 30.6111 34.362 30.084 33.7401C29.7963 33.4005 30.1975 32.9198 30.5862 33.137C31.8029 33.8169 33.5411 34.584 35.1943 34.584C37.6636 34.584 37.9659 30.2125 37.997 28.7385C38.0025 28.4881 37.7736 28.3013 37.5266 28.3435C34.1035 28.9294 32.3376 28.7696 31.4273 28.4328C30.9881 28.2702 31.1485 27.6214 31.6147 27.6671C34.8318 27.9804 39.6577 26.1689 43.1681 25.7303C47.1273 25.2351 46.2475 21.991 45.7529 19.4615C45.2577 16.932 43.6633 17.4819 40.9139 18.6917C38.1644 19.9014 30.8504 20.1214 29.5853 21.3312C28.3209 22.5409 30.4098 26.7201 30.4098 26.7201C30.4098 26.7201 28.9254 26.0603 28.2656 22.4856C27.6057 18.9109 35.6342 19.3508 35.6342 19.3508C35.6342 19.3508 30.4098 18.8556 28.2656 20.286C26.6173 21.3851 27.6327 24.5959 28.1909 26.0229C28.3168 26.3445 28.0034 26.6551 27.679 26.5382C27.0945 26.3279 26.2936 25.8763 25.6261 24.9051C24.4163 23.1455 24.8562 19.9561 26.8358 18.8563C28.5976 17.8775 37.7632 16.8988 39.7594 16.6954C39.9752 16.6733 40.1364 16.4817 40.1143 16.2666C39.7975 13.2045 37.5467 10.8126 36.2014 9.63809C35.8991 9.37455 35.4419 9.66714 35.5567 10.051C35.6757 10.4481 35.1873 10.733 34.892 10.4411C34.228 9.78404 33.5549 9.39392 32.9684 9.16359C32.5783 9.01072 32.249 9.47001 32.5174 9.79165C32.9601 10.3208 33.2956 10.9973 33.5494 11.6966C33.6988 12.1081 33.1565 12.4305 32.875 12.095C31.5774 10.5525 29.633 9.39738 28.0449 9.39738C25.2401 9.39738 22.6559 15.8862 22.6559 15.8862C22.5882 15.5355 22.6601 15.0547 22.8067 14.5297C22.9319 14.0801 22.2956 13.8242 22.0742 14.2351C21.3729 15.5382 20.7856 17.0772 20.7856 18.5803C20.7856 21.2571 21.772 23.99 22.3322 25.3271C22.4685 25.6522 22.9285 25.6466 23.0647 25.3215L23.6734 23.8655C23.8097 23.539 24.2752 23.5356 24.4087 23.8634C24.5837 24.2923 24.7449 24.9335 24.7449 25.8396C24.7449 27.8192 26.4499 29.0843 26.4499 30.624C26.4499 32.1638 26.0646 33.5388 25.0748 34.4733C24.6639 34.8614 24.7075 35.4202 24.8991 35.9404C25.0139 36.2517 24.7289 36.5449 24.4087 36.4578C23.6312 36.2468 22.4332 36.2102 20.6203 36.7282C16.3857 37.938 14.7361 36.9482 10.9968 41.5127C7.25817 46.0778 1.75922 48.7173 0.824049 52.512C-0.110428 56.3066 2.9683 60.5958 9.62238 58.2309C16.2765 55.866 26.0646 44.0982 31.6466 44.0982C37.2278 44.0982 44.3218 48.3328 44.3218 45.9679C44.3218 42.7785 38.8775 44.4282 38.8775 41.6787C38.8775 38.9292 40.5818 38.434 42.6721 37.994C44.7617 37.5541 48.3911 38.4893 48.3911 36.8942C48.3924 35.2992 43.4655 36.5712 43.8833 35.4645ZM38.7496 20.7992C39.4834 20.6595 40.1661 20.5101 40.9132 20.2244C40.6967 20.5682 40.3598 20.8262 40.0036 21.0164C39.6453 21.2115 39.2552 21.3208 38.8658 21.4052C38.4736 21.4771 38.0772 21.5068 37.6823 21.4875C37.2887 21.4688 36.8937 21.4135 36.514 21.2696C37.2866 21.0503 38.0226 20.9459 38.7496 20.7992ZM34.3144 15.4476C34.3144 15.3992 34.3054 15.3494 34.3034 15.301C34.3103 15.3867 34.3144 15.4476 34.3144 15.4476Z" fill="url(#paint4_linear)"/>
<defs>
<linearGradient id="paint0_linear" x1="22.4825" y1="38.5336" x2="69.0529" y2="43.551" gradientUnits="userSpaceOnUse">
<stop stop-color="#1F4BA4"/>
<stop offset="1" stop-color="#1F79E2"/>
</linearGradient>
<linearGradient id="paint1_linear" x1="53.9255" y1="31.468" x2="56.0361" y2="29.902" gradientUnits="userSpaceOnUse">
<stop stop-color="#1F4BA4"/>
<stop offset="1" stop-color="#1F79E2"/>
</linearGradient>
<linearGradient id="paint2_linear" x1="54.9841" y1="42.377" x2="51.3481" y2="40.1369" gradientUnits="userSpaceOnUse">
<stop stop-color="#1F4BA4"/>
<stop offset="1" stop-color="#1F79E2"/>
</linearGradient>
<linearGradient id="paint3_linear" x1="7.29429" y1="4.46432" x2="72.2729" y2="12.1317" gradientUnits="userSpaceOnUse">
<stop stop-color="#1F4BA4"/>
<stop offset="1" stop-color="#1F79E2"/>
</linearGradient>
<linearGradient id="paint4_linear" x1="5.8472" y1="14.1108" x2="52.4336" y2="17.6168" gradientUnits="userSpaceOnUse">
<stop stop-color="#1F4BA4"/>
<stop offset="1" stop-color="#1F79E2"/>
</linearGradient>
</defs>
</svg>
