<svg xmlns="http://www.w3.org/2000/svg" width="330.653" height="229.984"><defs><linearGradient id="a" x1=".5" y1="1" x2=".5" gradientUnits="objectBoundingBox"><stop offset="0" stop-color="gray" stop-opacity=".251"/><stop offset=".54" stop-color="gray" stop-opacity=".122"/><stop offset="1" stop-color="gray" stop-opacity=".102"/></linearGradient></defs><g transform="translate(0 -33.899)"><circle data-name="Ellipse 37" cx="3.972" cy="3.972" r="3.972" transform="translate(302.377 33.899)" fill="#d05c76" opacity=".1"/><ellipse data-name="Ellipse 38" cx="27.882" cy="2.78" rx="27.882" ry="2.78" transform="translate(200.471 258.323)" fill="#d05c76" opacity=".1"/><path data-name="Path 65" d="M70.83 161.299l-.122 6.6-.98 53.523-8.392 19.644-28.9.331v-77.056l30.166-2.39z" fill="#5f5d7e"/><path data-name="Path 66" d="M70.83 161.299l-.122 6.6-.98 53.523-8.392 19.644-28.9.331v-77.056l30.166-2.39z" opacity=".1"/><path data-name="Path 67" d="M70.83 161.299l-.122 6.6-.98 53.523-8.387 19.641 2.208-73.038-.007-.046-.94-6.031z" fill="#5f5d7e"/><path data-name="Path 68" d="M62.602 161.951l8.228-.652-.122 6.6-7.166.079-31.106.351v-3.988z" opacity=".1"/><path data-name="Path 69" d="M330.653 164.34v76.613h-6.729l-26.922-19.637v-59.138l24.053-2.261 1.476.679 1.393.642z" fill="#5f5d7e"/><path data-name="Rectangle 55" opacity=".1" d="M323.924 160.597h6.729v80.356h-6.729z"/><path data-name="Path 70" d="M330.653 160.597v4.405l-6.729.076-26.922.3v-3.2l24.053-2.261 1.476.679 1.393.642v-.642z" opacity=".1"/><path data-name="Path 71" d="M330.653 158.098v6.242L0 168.027v-7.944l31.113-6.289 270.745-1.986z" fill="#5f5d7e"/><path data-name="Path 72" d="M330.653 158.098v6.242L0 168.028v-7.944z" opacity=".1"/><rect data-name="Rectangle 56" width="115.818" height="89.925" rx="22.82" transform="translate(120.975 64.539)" fill="#474157"/><path data-name="Rectangle 57" fill="#ededf4" d="M130.295 72.651h97.349v73.356h-97.349z"/><circle data-name="Ellipse 39" cx="1.595" cy="1.595" r="1.595" transform="translate(124.9 107.732)" fill="#e6e8ec"/><circle data-name="Ellipse 40" cx="2.631" cy="2.631" r="2.631" transform="translate(229.326 106.868)" fill="#e6e8ec"/><path data-name="Path 73" d="M189.465 109.612l-12.448-7.566a1.7 1.7 0 00-2.525 1.483v14.715a1.7 1.7 0 002.525 1.483l12.448-7.143a1.7 1.7 0 000-2.972zm9.36 1.274a17.542 17.542 0 10-17.542 17.542 17.542 17.542 0 0017.542-17.542zm-31.688 0a14.146 14.146 0 1114.146 14.146 14.146 14.146 0 01-14.146-14.146z" fill="#474157"/><path data-name="Path 74" d="M736.127 405.782a4.14 4.14 0 00-.374-1.165c.251-.857.414-1.384.414-1.384a1.934 1.934 0 00-.04-.331 5.081 5.081 0 00-5.147-4.263c-1.986.036-5.753.169-9.93.639.238-1.671.523-3.671.821-5.729l.546.06a2.617 2.617 0 01.391.02h.175a1.8 1.8 0 001.211-.371.715.715 0 00-.222-1.172 2.952 2.952 0 002.593-1.086 2.317 2.317 0 000-2.694c-.7-.993-2.178-1.655-2.257-2.823a3.449 3.449 0 01.748-1.844 7.7 7.7 0 00-1.215-9.251 18.114 18.114 0 00-1.47-1.307c-.728-2.674-1.489-5.064-1.714-5.14-.291-.1-.791-.725-1.268-1.264a6.084 6.084 0 00-.023-1.367c-.351-2.317-2.648-3.972-3.912-6.017a10.388 10.388 0 01-1.168-6.894 49.322 49.322 0 011.807-6.9 8.782 8.782 0 00.354-5.187 9.428 9.428 0 00-2.135-3.217 24.318 24.318 0 00-7.586-5.958 15.076 15.076 0 00-6.716-1.436h-.023l-.364.02-.258.017-.258.026-.275.026c-.281.036-.559.079-.837.136a28.9 28.9 0 00-6.14-.688h-.268a3.144 3.144 0 00-1.754.414c-.735.513-.828 1.433-1.049 2.234a6.2 6.2 0 01-2.383 3.31c-.791.569-1.721.993-2.476 1.589a2.522 2.522 0 00-1.142 2.37 2.586 2.586 0 001.655 1.622c-.1.119-.2.235-.288.357.156.063.331.119.473.165.993.295 2.062.331 3.068.6a6.722 6.722 0 01.814.275 11.624 11.624 0 00-1.36 5.468 11.78 11.78 0 006.163 10.333v.331c.1 3.455-.159 7.659-1.926 8.371s-3.459 1.516-4.5 2.036l-.331.175a16.252 16.252 0 01-.818-.4s-1.407-.166-1.162.907c0 0-4.253-.662-6.587 1.155a60.655 60.655 0 00-6.914 6.6c-.751.99-6.56 3.154-6.56 3.154a7.448 7.448 0 001.039-5.693s-.874-3.78-.457-5.3 1.5-7.143 1.5-7.143.152-5.938-3.088-8.662-5.494-4.965-4.243-2.317a36.89 36.89 0 001.834 3.545s-7.748 1.84-5 4.713 3.5 2.876 3.5 2.876-.917 7.093-1.086 8.414-1.655 11.383-1.655 11.383-.083 4.786.751 5.527a3.765 3.765 0 004 2.979s6.58-.166 8.414-.907 8.162-4.7 8.831-4.455a.379.379 0 01.129.086.945.945 0 01.1.1c-.662 1.466-2.231 6.444-1.562 8.89 0 0-.583 6.927 2.916 9.155 0 0 5.081 8.579 3.164 13.2a42.95 42.95 0 00-.414 1.053c-2.909-2.413-7.348-4.634-14.126-5.862a35.995 35.995 0 01-2.062-.444c-1.926-.467-7.225-.894-9.747 7.484a36.856 36.856 0 01-2.237 5.667 18.711 18.711 0 00-2.118 7.745c-.056 4 2.012 7.973 9.519 9.43a28.567 28.567 0 001.443 9.079c2.082 5.2 5.415 13.61 5.415 13.61s4 8.579 4.25 12.041a55.282 55.282 0 01.235 7.282 3.246 3.246 0 01-.033.364 8.779 8.779 0 01-1.119 1.016c-.583.331-2.5 2.393-2.5 2.886a8.82 8.82 0 00.126 1.41 3.474 3.474 0 00-1.4 2.515c0 4.475 12.7 8.1 28.365 8.1s28.362-3.641 28.362-8.1c0-4.084-10.592-7.46-24.354-8.016 2.87-1.145 5.418-2.347 6.474-3.31a1.549 1.549 0 00.5-.682l-2.676-6.183s-.208.046-.516.136l-.185-.278c-1.185-1.8-3.465-5.4-3.465-6.375 0-.361-.6-2.668-1.476-5.829v-10.145c8.692 1.324 19.892-.477 19.892-.477l.05-.026h.218v-.119c1.506-.834 9.039-5.246 11.273-11.1.662-1.708-.162-4.154-1.8-6.769 1.145-2.843 3.972-10.188 3.69-13.117 0-.156-.02-.331-.02-.5a8.657 8.657 0 00.033-.9c.331-4.3 2.979-12.164 2.979-12.164s-.013-.136-.046-.335zm-56.267-19.117a45.04 45.04 0 011.5 2.962s-.88-1.622-1.486-2.962zm.629 92.709l-.063.023v-.331a19.677 19.677 0 01.063-2.588 3.032 3.032 0 00-.285-1.344 31.771 31.771 0 01-2.029-7.987 40.053 40.053 0 01-.434-6.835 121.041 121.041 0 00.149-15.113l5.124 1.152 5.958 12.147s3.833 5.931 5.021 10.611v4.691a11.451 11.451 0 01-1.791 3.886 59.171 59.171 0 00-2.277 3.31c-.218.351-.46.712-.7 1.049-.079 0-3.995.228-4.66.963a4.449 4.449 0 00-1.245 1.887l-.169.026a39.5 39.5 0 00-2.645-5.544z" transform="translate(-470.055 -237.258)" fill="url(#a)"/><path data-name="Path 75" d="M235.638 237.862l-1.324 4.3-5.627 4.882-8.275 2.376s-3.889-2.128-2.565-2.542a3.266 3.266 0 001.248-1.086c-.463 1.688 3.22-.487 3.22-.487s9.516-6.785 10.509-7.53a7.484 7.484 0 012.118-.97c.415.649.696 1.057.696 1.057z" opacity=".1"/><path data-name="Path 76" d="M235.638 237.862l-1.324 4.3-5.627 4.882-8.275 2.376s-3.889-2.128-2.565-2.542a3.264 3.264 0 001.248-1.086 16.54 16.54 0 001.105-1.6 53.15 53.15 0 012.261-3.31 11.914 11.914 0 002.089-5.5c.579-4.551-5.3-13.736-5.3-13.736l-10.67-21.917 14.894 1.82s8.026 27.555 8.026 28.878c0 .993 2.264 4.584 3.442 6.395.415.633.696 1.04.696 1.04z" fill="#fdc2cc"/><ellipse data-name="Ellipse 41" cx="28.173" cy="8.126" rx="28.173" ry="8.126" transform="translate(199.203 247.086)" fill="#5f5d7e"/><path data-name="Path 77" d="M238.285 243.158a1.589 1.589 0 01-.5.685c-2.045 1.877-9.695 4.667-14.421 6.183a33.453 33.453 0 01-3.783 1.076 11.218 11.218 0 01-5.213-1.678c-1.655-1.016-.165-2.459.5-3.2s4.634-.966 4.634-.966c-1.9 3.167 2.81.387 2.81.387s9.516-6.785 10.509-7.53a9.134 9.134 0 012.813-1.158z" fill="#fff"/><path data-name="Path 79" d="M237.789 243.849c-2.045 1.877-9.694 4.667-14.421 6.183 4.283-3.628 11.465-5.524 14.421-6.183z" opacity=".1"/><ellipse data-name="Ellipse 42" cx="5.637" cy="1.625" rx="5.637" ry="1.625" transform="translate(221.74 250.969)" opacity=".1"/><path data-name="Rectangle 58" fill="#5f5d7e" d="M224.242 209.732h5.792v42.862h-5.792z"/><path data-name="Path 80" d="M230.034 211.856v4.965a40.735 40.735 0 01-5.792-3.048v-4.045h1.208z" opacity=".1"/><path data-name="Path 81" d="M216.388 191.07s19.124-4.922 23.884-8.606 23.45 13.65 20.981 20.19-11.459 11.277-11.459 11.277-24.86 4.045-29.094-4.392-4.312-18.469-4.312-18.469z" fill="#474157"/><path data-name="Path 82" d="M216.388 191.07s19.124-4.922 23.884-8.606 23.45 13.65 20.981 20.19-11.459 11.277-11.459 11.277-24.86 4.045-29.094-4.392-4.312-18.469-4.312-18.469z" opacity=".1"/><path data-name="Path 83" d="M214.733 189.084s19.124-4.922 23.884-8.606 23.45 13.65 20.981 20.19-11.459 11.277-11.459 11.277-24.86 4.045-29.094-4.392-4.312-18.469-4.312-18.469z" fill="#474157"/><path data-name="Path 84" d="M196.995 143.951l-2.069-.751a7.524 7.524 0 001.036-5.709s-.87-3.793-.457-5.329 1.489-7.166 1.489-7.166.152-5.958-3.068-8.688-5.455-4.965-4.213-2.317a36.873 36.873 0 001.82 3.558s-7.7 1.844-4.965 4.73 3.475 2.883 3.475 2.883-.91 7.116-1.076 8.44-1.655 11.419-1.655 11.419-.083 4.8.745 5.544a3.744 3.744 0 003.972 2.979c.591-.006 7.614-7.772 4.966-9.593z" fill="#fdc2cc"/><path data-name="Path 85" d="M246.974 128.727v4.634l-4.8 1.566-8.175 6.017-2.168 1.6-9.681-3.889-6.123-6.454s.3-.162.814-.43l.331-.175c1.036-.52 2.668-1.324 4.472-2.042s2.016-4.928 1.913-8.4v-.331c-.083-2.433-.331-4.422-.331-4.422s1.009-.192 2.479-.41c4.074-.606 11.677-1.423 11.009 1.072a5.75 5.75 0 000 2.578c.02.093.04.189.063.281a21.834 21.834 0 002.82 6.16l6.62 2.383.185.066z" fill="#fdc2cc"/><path data-name="Path 86" d="M246.974 130.133v-1.407a4.635 4.635 0 011.572 0c.579.166 1.678 1.9 2.175 2.069s3.535 11.5 3.2 12.495-3.459 23.411-3.459 23.411l-6.305 6.951-1.241-19.114 4.055-11.336z" fill="#fdc2cc"/><path data-name="Path 87" d="M214.289 182.18s-5.762 1.241-5.031 3.062 3.955 1.9 3.955 1.9z" fill="#fdc2cc"/><path data-name="Path 88" d="M222.315 145.424l-4.385 9.45-5.213 3.806-.91-5.882s-1.761-3.889-2.519-4.548a.381.381 0 00-.129-.086c-.662-.248-6.951 3.724-8.771 4.468s-8.357.91-8.357.91l2.9-10.343s5.792-2.151 6.537-3.144a60.24 60.24 0 016.868-6.62c2.317-1.82 6.544-1.158 6.544-1.158l.066.027 1.086.47 3.144 7.7z" fill="#fdc2cc"/><path data-name="Path 89" d="M210.814 239.689a19.745 19.745 0 00-.063 2.595c.023.923.063 1.708.063 1.708l-1.9 3.972s-6.537 2.151-5.461 1.241a3.6 3.6 0 00.662-2.214 56.151 56.151 0 00-.235-7.3c-.248-3.475-4.22-12.081-4.22-12.081s-3.31-8.44-5.378-13.653-1.324-14.646-1.324-14.646.331-7.116 1.82-9.268 7.282-2.9 7.282-2.9l2.717 9.013s2.234 8.44 3.062 9.681.579 16.053.248 17.625a42.153 42.153 0 00.434 6.858 32.21 32.21 0 002.012 8.01 3.058 3.058 0 01.281 1.359z" fill="#fdc2cc"/><path data-name="Path 90" d="M210.811 243.992l-1.9 3.972s-6.537 2.151-5.461 1.241a3.6 3.6 0 00.662-2.214c.235-.235.487-.493.745-.758a16.712 16.712 0 015.908-3.949c.009.923.046 1.708.046 1.708z" opacity=".1"/><path data-name="Path 91" d="M213.799 249.903a.19.19 0 010 .046c-.331 1.572-5.792 3.724-5.792 3.724s-3.475.579-5.461 1.076a1.374 1.374 0 01-.467.043c-1.532-.116-1.6-3.065-1.6-3.518a9.406 9.406 0 012.482-2.9 17.731 17.731 0 001.84-1.764 17.078 17.078 0 016.031-4.028s3.232 5.689 2.967 7.321z" fill="#fff"/><path data-name="Path 93" d="M213.799 249.903a.2.2 0 010 .046c-.331 1.572-5.792 3.724-5.792 3.724s-3.475.579-5.461 1.076a1.373 1.373 0 01-.467.043c1.8-1.235 6.166-4.2 6.755-4.263s3.492-.901 4.965-.626z" opacity=".1"/><path data-name="Path 94" d="M236.79 119.919c-2.045 1.685-3.925 1.443-6.782 1.443-2.065 0-4.75.725-6.441-.205-.07-2.585-.331-4.76-.331-4.76s14.4-2.731 13.488.662a6.018 6.018 0 00.066 2.86z" opacity=".1"/><path data-name="Path 95" d="M241.097 110.452a11.833 11.833 0 01-11.833 11.833 8.249 8.249 0 01-.907-.033 11.833 11.833 0 1112.743-11.8z" fill="#fdc2cc"/><path data-name="Path 96" d="M219.168 140.476l3.144 4.965-4.385 9.45-5.213 3.806-.91-5.9s-1.761-3.889-2.519-4.548c.218-.533.367-.778.367-.583 0 .827 2.036 4.551 2.036 4.551 6.289-2.151 4.336-10.509 4.336-10.509s-.781-7.447-1.086-9.407l1.086.47z" opacity=".1"/><path data-name="Path 97" d="M246.974 128.727v4.631l-4.8 1.566-8.175 6.017-2.168 1.6-9.681-3.889-6.123-6.454s.3-.162.814-.43l.331-.175a40.413 40.413 0 0016.718 3.005c12.468-1.986 12.839-5 12.528-6.067z" opacity=".1"/><path data-name="Path 98" d="M250.532 203.77a92.77 92.77 0 01-9.6 4.055c-5.709 2.069-18.287-.662-19.859-1.076s-13.653-5.213-18.287-7.033-5.792-.331-6.868-.5-1.82-2.234-1.986-2.813 2.979-5.627 4.717-8.192 6.951-2.069 7.7-2.234 5.958 0 5.958 0-.331-1.655 1.572-6.289-3.144-13.239-3.144-13.239c-3.475-2.234-2.9-9.185-2.9-9.185-.827-3.062 1.82-10.1 1.82-9.268s2.036 4.551 2.036 4.551c6.289-2.151 4.336-10.509 4.336-10.509s-.91-8.688-1.152-9.764 1.152-.91 1.152-.91q.4.209.814.4a40.229 40.229 0 0017.059 3.161c15.116-2.439 12.438-6.328 12.339-6.467l.735.261c5.461 3.972 3.806 17.128 3.806 17.128l-2.046 9.82-1.519 7.315s5.378 32.6 5.875 34.257-2.558 6.531-2.558 6.531z" fill="#be7575"/><path data-name="Path 99" d="M210.235 188.876c-.331.248-4.055 7.944-1.324 10.095s1.324-10.095 1.324-10.095z" opacity=".1"/><path data-name="Path 100" d="M212.882 189.959c.083.248 7.778 12.495 12 13.488z" opacity=".1"/><path data-name="Path 101" d="M231.42 93.049l-1.231.261a8.3 8.3 0 011.039-.308z" opacity=".1"/><path data-name="Path 102" d="M249.962 145.848l-2.317 9.814a11.986 11.986 0 01-3.214-2.159 9.8 9.8 0 00-2.35-1.966 10.2 10.2 0 00-4.081-.563 19.632 19.632 0 01-5.1-.874 3.6 3.6 0 01-1.324-.642 3.217 3.217 0 01-.662-2.8 42.889 42.889 0 00.05-5.723c-.02-.357-.046-.715-.076-1.072-.132-1.6-.563-3.452-2.2-4.137-.841-.331-1.844-.3-2.648-.7a2.184 2.184 0 01-.331-.205c-1.192-.834-1.3-2.506-1.254-3.912q.106-2.9.2-5.8a16.857 16.857 0 00-.063-2.863 6.355 6.355 0 00-.516-1.827c-.718-1.536-2.214-2.817-2.482-4.438a1.8 1.8 0 01-.03-.228c-.139-1.45.774-2.8 1.1-4.227.642-2.87-1.516-6.014-4.69-6.838-.993-.258-2.059-.308-3.048-.6a4.9 4.9 0 01-.467-.165 13.894 13.894 0 0111.167-5.3c7.391 0 13.385 5.3 13.385 11.833a11.356 11.356 0 01-4.945 9.185c.02.093.043.189.07.281a20.819 20.819 0 003.191 6.16l7.493 2.383.834.265c6.177 3.968 4.308 17.118 4.308 17.118z" opacity=".1"/><path data-name="Path 103" d="M254.031 155.354a1.126 1.126 0 01-.212-.03.44.44 0 01.212.03z" opacity=".1"/><path data-name="Path 104" d="M228.438 92.724a28.465 28.465 0 00-6.315-.738 3.5 3.5 0 00-1.986.417c-.732.513-.824 1.44-1.043 2.241a6.216 6.216 0 01-2.367 3.31c-.784.573-1.708.993-2.459 1.6a2.566 2.566 0 00-1.135 2.376 2.938 2.938 0 002.171 1.84c.993.281 2.049.331 3.048.6 3.174.824 5.329 3.972 4.687 6.835-.331 1.427-1.235 2.777-1.1 4.227.162 1.731 1.761 3.065 2.512 4.67a10.092 10.092 0 01.586 4.687l-.2 5.805c-.053 1.529.079 3.369 1.589 4.117.808.4 1.814.354 2.648.705 1.635.682 2.065 2.539 2.2 4.134a42.728 42.728 0 01.026 6.8 3.187 3.187 0 00.662 2.8 3.549 3.549 0 001.324.642 19.634 19.634 0 005.1.874 10.307 10.307 0 014.081.563 9.879 9.879 0 012.35 1.966 12.988 12.988 0 007.672 3.359 2.285 2.285 0 001.734-.354c.427-.394.175-1.244-.434-1.195a2.943 2.943 0 002.787-1.066 2.35 2.35 0 000-2.7c-.692-.993-2.161-1.655-2.241-2.833a3.5 3.5 0 01.741-1.85 7.781 7.781 0 00-1.2-9.268c-1.552-1.605-3.879-2.823-4.422-4.882-.361-1.377.185-2.823-.023-4.223-.331-2.317-2.625-3.972-3.886-6.037a10.5 10.5 0 01-1.162-6.914 49.178 49.178 0 011.8-6.918 8.928 8.928 0 00.351-5.206 9.539 9.539 0 00-2.122-3.227 23.894 23.894 0 00-7.533-5.958 13.774 13.774 0 00-9.837-.907" fill="#474157"/><path data-name="Path 105" d="M228.438 92.724a28.465 28.465 0 00-6.315-.738 3.5 3.5 0 00-1.986.417c-.732.513-.824 1.44-1.043 2.241a6.216 6.216 0 01-2.367 3.31c-.784.573-1.708.993-2.459 1.6a2.566 2.566 0 00-1.135 2.376 2.938 2.938 0 002.171 1.84c.993.281 2.049.331 3.048.6 3.174.824 5.329 3.972 4.687 6.835-.331 1.427-1.235 2.777-1.1 4.227.162 1.731 1.761 3.065 2.512 4.67a10.092 10.092 0 01.586 4.687l-.2 5.805c-.053 1.529.079 3.369 1.589 4.117.808.4 1.814.354 2.648.705 1.635.682 2.065 2.539 2.2 4.134a42.728 42.728 0 01.026 6.8 3.187 3.187 0 00.662 2.8 3.549 3.549 0 001.324.642 19.634 19.634 0 005.1.874 10.307 10.307 0 014.081.563 9.879 9.879 0 012.35 1.966 12.988 12.988 0 007.672 3.359 2.285 2.285 0 001.734-.354c.427-.394.175-1.244-.434-1.195a2.943 2.943 0 002.787-1.066 2.35 2.35 0 000-2.7c-.692-.993-2.161-1.655-2.241-2.833a3.5 3.5 0 01.741-1.85 7.781 7.781 0 00-1.2-9.268c-1.552-1.605-3.879-2.823-4.422-4.882-.361-1.377.185-2.823-.023-4.223-.331-2.317-2.625-3.972-3.886-6.037a10.5 10.5 0 01-1.162-6.914 49.178 49.178 0 011.8-6.918 8.928 8.928 0 00.351-5.206 9.539 9.539 0 00-2.122-3.227 23.894 23.894 0 00-7.533-5.958 13.774 13.774 0 00-9.837-.907" opacity=".1"/><path data-name="Path 106" d="M210.731 166.458s2.813 1.076 5.792-1.9-5.792 1.9-5.792 1.9z" opacity=".1"/><g data-name="Group 116" opacity=".1"><path data-name="Path 107" d="M229.681 92.672a11.772 11.772 0 011.655-.209 12.553 12.553 0 00-2.317.073z"/><path data-name="Path 108" d="M246.279 153.184a9.9 9.9 0 00-2.353-1.966 10.3 10.3 0 00-4.081-.563 19.527 19.527 0 01-5.1-.874 3.548 3.548 0 01-1.324-.642 3.225 3.225 0 01-.662-2.8 42.729 42.729 0 00-.026-6.8c-.136-1.6-.563-3.452-2.2-4.134-.837-.351-1.84-.308-2.648-.7-1.509-.748-1.655-2.588-1.592-4.117l.2-5.8a10.059 10.059 0 00-.586-4.69c-.751-1.605-2.35-2.936-2.512-4.67-.136-1.446.778-2.8 1.1-4.227.642-2.87-1.516-6.011-4.69-6.835-.993-.258-2.059-.311-3.048-.6a2.905 2.905 0 01-2.155-1.82 2.52 2.52 0 011.132-2.38c.751-.606 1.675-1.023 2.463-1.6a6.193 6.193 0 002.363-3.31 3.713 3.713 0 011.043-2.241 2.648 2.648 0 011.357-.4c-.295 0-.589-.017-.88-.017a3.521 3.521 0 00-1.986.414c-.732.516-.824 1.44-1.043 2.241a6.216 6.216 0 01-2.367 3.31c-.784.573-1.708.993-2.459 1.6a2.568 2.568 0 00-1.135 2.38 2.92 2.92 0 002.158 1.82c.99.295 2.049.331 3.048.6 3.174.824 5.329 3.972 4.687 6.835-.331 1.427-1.235 2.78-1.1 4.227.162 1.734 1.761 3.065 2.512 4.67a10.057 10.057 0 01.586 4.69l-.2 5.8c-.053 1.529.079 3.369 1.589 4.117.808.4 1.814.354 2.648.7 1.635.682 2.065 2.539 2.2 4.134a42.743 42.743 0 01.026 6.8 3.187 3.187 0 00.662 2.8 3.548 3.548 0 001.324.642 19.5 19.5 0 005.1.874 10.308 10.308 0 014.081.563 9.959 9.959 0 012.357 1.969 12.968 12.968 0 007.669 3.36 3.544 3.544 0 001.109-.043 12.945 12.945 0 01-7.267-3.317z"/></g><path data-name="Path 109" d="M194.926 143.2s-2.648 2.429-2.261 3.422 2.261-3.422 2.261-3.422z" opacity=".1"/><path data-name="Path 110" d="M197.383 174.429c-1.91-.467-7.176-.9-9.681 7.507a37.18 37.18 0 01-2.221 5.683c-2.4 4.935-5.508 15.083 8.146 17.317l32.767 7.447s17.542 2.151 18.7 1.324a3.207 3.207 0 00.993-2.648s-19.363 0-23.169-5.958-3.972-14.067-3.972-14.067.477-12.521-19.528-16.159a40.588 40.588 0 01-2.035-.446z" fill="#474157"/><path data-name="Path 111" d="M197.383 174.488c-1.91-.467-7.176-.9-9.681 7.51a37.185 37.185 0 01-2.221 5.683c-2.4 4.932-5.508 15.08 8.146 17.314l32.767 7.447s17.542 2.151 18.7 1.324a3.207 3.207 0 00.993-2.648s-19.363 0-23.169-5.958-3.97-14.072-3.97-14.072.477-12.521-19.528-16.159c-.664-.123-1.359-.285-2.037-.441z" opacity=".1"/><path data-name="Path 112" d="M266.072 165.866a5.061 5.061 0 00-5.114-4.276c-4.713.086-19.22.715-25.959 5.117 0 0-5.13 3.31-6.62 3.31s-21.68 17.211 8.275 32.6c0 0 16.053 4.568 22.341-6.156 0 0 4.468-11.518 4.137-15.507s2.982-14.744 2.982-14.744-.009-.129-.042-.344z" fill="#474157"/><path data-name="Path 113" d="M266.072 168.766a4.963 4.963 0 00-5.114-3.949c-4.713.079-19.22.662-25.959 4.723 0 0-5.13 3.055-6.62 3.055s-21.68 15.887 8.275 30.1c0 0 16.053 4.217 22.341-5.683 0 0 4.468-10.635 4.137-14.315s2.982-13.613 2.982-13.613-.009-.119-.042-.318z" opacity=".1"/><path data-name="Rectangle 59" fill="#5f5d7e" d="M244.763 202.615h5.296v11.277h-5.296z"/><ellipse data-name="Ellipse 43" cx="14.908" cy=".957" rx="14.908" ry=".957" transform="translate(41.439 154.848)" opacity=".1"/><path data-name="Path 114" d="M68.857 118.913a5.687 5.687 0 00-.755 1.42c-.046.126-.093.265-.139.4a1.22 1.22 0 00-.262-.089 3.753 3.753 0 00-1.182-.1c0-.152.02-.331.023-.483.05-1.744-.156-4.177-1.82-3.148-1.6.993-.457 2.648.573 3.71l.265.258c-.94.662-1.119 2.228-1.274 3.853s-1.536 3.406-2.453 4.415c-.093.1-.175.2-.258.281a3.346 3.346 0 00-2.664-.685c-.036-.142-.079-.291-.122-.45-.741-2.674-2.28-7.311-4.243-8.328l.258-.331c.834-1.092 1.774-2.711.387-3.128s-1.513 1.407-1.436 2.77c0 .172.026.331.04.483a2.042 2.042 0 00-1.45.708l-.215-.252c-1.125-1.324-3.187-3.432-3.813-1.84-.583 1.483 1.235 3.406 2.512 4.521l.079.07c-.857 3.485 2.876 6.332 4.9 7.563l.261.159c-2.78 3.277-4.5 9.417-4.5 9.417l7.785 1.39s5.163-4.452 4.5-8.635h.053c5.16-1.033 6.332-6.534 5.527-9.8l.093-.036a5.871 5.871 0 002.39-1.807c1.446-2.012-1.583-4.276-3.06-2.306z" fill="#2b4ca5"/><path data-name="Path 115" d="M68.857 118.913a5.687 5.687 0 00-.755 1.42c-.046.126-.093.265-.139.4a1.22 1.22 0 00-.262-.089 3.753 3.753 0 00-1.182-.1c0-.152.02-.331.023-.483.05-1.744-.156-4.177-1.82-3.148-1.6.993-.457 2.648.573 3.71l.265.258c-.94.662-1.119 2.228-1.274 3.853s-1.536 3.406-2.453 4.415c-.093.1-.175.2-.258.281a3.346 3.346 0 00-2.664-.685c-.036-.142-.079-.291-.122-.45-.741-2.674-2.28-7.311-4.243-8.328l.258-.331c.834-1.092 1.774-2.711.387-3.128s-1.513 1.407-1.436 2.77c0 .172.026.331.04.483a2.042 2.042 0 00-1.45.708l-.215-.252c-1.125-1.324-3.187-3.432-3.813-1.84-.583 1.483 1.235 3.406 2.512 4.521l.079.07c-.857 3.485 2.876 6.332 4.9 7.563l.261.159c-2.78 3.277-4.5 9.417-4.5 9.417l7.785 1.39s5.163-4.452 4.5-8.635h.053c5.16-1.033 6.332-6.534 5.527-9.8l.093-.036a5.871 5.871 0 002.39-1.807c1.446-2.012-1.583-4.276-3.06-2.306z" fill="none" opacity=".1"/><path data-name="Path 116" d="M53.361 121.157l-.9 2.664s-.506-.357-1.145-.92c-1.278-1.115-3.095-3.038-2.512-4.521.626-1.592 2.688.51 3.813 1.84.443.527.744.937.744.937z" fill="#fff"/><path data-name="Path 117" d="M55.281 119.638a12.872 12.872 0 01-.887 1.043 13.968 13.968 0 01-.162-1.4c-.076-1.364.069-3.174 1.436-2.77s.434 2.034-.387 3.127z" fill="#fff"/><path data-name="Path 118" d="M67.024 120.058c-.026.877-.113 1.576-.113 1.576a11.251 11.251 0 01-1.135-1.013c-1.029-1.069-2.168-2.717-.573-3.71 1.662-1.03 1.868 1.402 1.821 3.147z" fill="#fff"/><path data-name="Path 119" d="M72.4 121.206a5.872 5.872 0 01-2.4 1.8 6.68 6.68 0 01-.8.288l-1.072-1.506a10.932 10.932 0 01.444-1.463 5.687 5.687 0 01.755-1.42 1.92 1.92 0 013.073 2.301z" fill="#fff"/><path data-name="Path 120" d="M52.607 120.22c.453.526.755.937.755.937l-.9 2.664s-.506-.357-1.145-.92a5.213 5.213 0 011.026-2.34 3.1 3.1 0 01.264-.341z" opacity=".1"/><path data-name="Path 121" d="M55.282 119.638a12.888 12.888 0 01-.887 1.043 13.977 13.977 0 01-.162-1.4 1.807 1.807 0 011.049.357z" opacity=".1"/><path data-name="Path 122" d="M59.742 130.215l-2.264.993s-.493-.238-1.2-.682c-2.38-1.466-7.162-5.15-3.955-9.493s5.882 3.449 6.934 7.255c.33 1.143.485 1.927.485 1.927z" fill="#fff"/><path data-name="Path 123" d="M65.773 120.621a1.844 1.844 0 011.248-.563c-.026.877-.113 1.575-.113 1.575a11.259 11.259 0 01-1.135-1.012z" opacity=".1"/><path data-name="Path 124" d="M70.003 123.01a6.68 6.68 0 01-.8.288l-1.072-1.506a10.935 10.935 0 01.444-1.463 3.83 3.83 0 011.428 2.681z" opacity=".1"/><path data-name="Path 125" d="M64.377 132.851l-.381.066c-7.589 1.155-2.5-2.939-2.5-2.939s.331-.314.8-.831c.917-1.009 2.294-2.78 2.453-4.415.238-2.459.513-4.766 3.416-4.088 2.864.665 3.412 10.767-3.788 12.207z" fill="#fff"/><path data-name="Rectangle 60" fill="#474157" d="M49.747 151.743h14.5v3.813h-14.5z"/><path data-name="Rectangle 61" fill="#474157" d="M47.443 139.351h18.946v13.306H47.443z"/><path data-name="Rectangle 62" opacity=".1" d="M49.608 151.743h14.5v3.813h-14.5z"/><path data-name="Rectangle 63" opacity=".1" d="M47.384 139.354H66.33v13.306H47.384z"/><path data-name="Rectangle 64" fill="#474157" d="M50.7 151.743h14.5v3.813H50.7z"/><path data-name="Path 126" d="M59.266 128.306c.331 1.139.49 1.923.49 1.923l-2.264.993s-.493-.238-1.2-.682a5.677 5.677 0 012.974-2.234z" opacity=".1"/><path data-name="Path 127" d="M64.377 132.851l-.381.066c-7.589 1.155-2.5-2.939-2.5-2.939s.331-.314.8-.831a5 5 0 012.081 3.704z" opacity=".1"/><path data-name="Path 128" d="M52.051 140.106s4.25-15.225 10.211-10.525-2.426 11.915-2.426 11.915z" fill="#fff"/><circle data-name="Ellipse 44" cx=".477" cy=".477" r=".477" transform="translate(53.719 122.944)" opacity=".1"/><circle data-name="Ellipse 45" cx=".477" cy=".477" r=".477" transform="translate(53.679 125.172)" opacity=".1"/><circle data-name="Ellipse 46" cx=".477" cy=".477" r=".477" transform="translate(67.504 123.381)" opacity=".1"/><circle data-name="Ellipse 47" cx=".477" cy=".477" r=".477" transform="translate(56.38 134.783)" opacity=".1"/><circle data-name="Ellipse 48" cx=".477" cy=".477" r=".477" transform="translate(66.511 127.078)" opacity=".1"/><circle data-name="Ellipse 49" cx=".477" cy=".477" r=".477" transform="translate(61.586 132.003)" opacity=".1"/><circle data-name="Ellipse 50" cx=".477" cy=".477" r=".477" transform="translate(55.347 123.897)" opacity=".1"/><circle data-name="Ellipse 51" cx=".477" cy=".477" r=".477" transform="translate(66.194 124.814)" opacity=".1"/><circle data-name="Ellipse 52" cx=".477" cy=".477" r=".477" transform="translate(64.565 128.508)" opacity=".1"/><circle data-name="Ellipse 53" cx=".477" cy=".477" r=".477" transform="translate(59.557 134.426)" opacity=".1"/><circle data-name="Ellipse 54" cx=".477" cy=".477" r=".477" transform="translate(58.525 132.083)" opacity=".1"/><circle data-name="Ellipse 55" cx=".477" cy=".477" r=".477" transform="translate(56.062 126.8)" opacity=".1"/><path data-name="Rectangle 65" opacity=".1" d="M50.7 151.743h14.5v1.393H50.7z"/><path data-name="Rectangle 66" fill="#474157" d="M48.397 139.351h18.946v13.306H48.397z"/><circle data-name="Ellipse 56" cx=".477" cy=".477" r=".477" transform="translate(60.193 136.571)" opacity=".1"/><circle data-name="Ellipse 57" cx=".477" cy=".477" r=".477" transform="translate(57.333 137.167)" opacity=".1"/><path data-name="Path 129" d="M103.231 190.2s2.36 3.088-1.089 7.748-6.289 8.606-5.15 11.505c0 0 5.21-8.659 9.45-8.778s1.453-5.265-3.211-10.475z" fill="#fff"/><path data-name="Path 130" d="M103.231 190.2a3.8 3.8 0 01.483.967c4.134 4.859 6.338 9.393 2.363 9.509-3.7.116-8.146 6.736-9.211 8.39.036.129.079.258.126.381 0 0 5.21-8.659 9.45-8.778s1.452-5.259-3.211-10.469z" opacity=".1"/><path data-name="Path 131" d="M107.62 194.139c0 1.086-.122 1.966-.271 1.966s-.271-.88-.271-1.966.152-.576.3-.576.242-.516.242.576z" fill="#ffd037"/><path data-name="Path 132" d="M109.126 195.436c-.953.52-1.784.834-1.857.7s.642-.662 1.6-1.182.576-.142.662 0 .551-.037-.405.482z" fill="#ffd037"/><path data-name="Path 133" d="M90.756 190.2s-2.36 3.088 1.089 7.748 6.289 8.606 5.147 11.505c0 0-5.206-8.659-9.446-8.778s-1.454-5.265 3.21-10.475z" fill="#fff"/><path data-name="Path 134" d="M90.756 190.2a3.8 3.8 0 00-.483.967c-4.134 4.859-6.338 9.393-2.363 9.509 3.7.116 8.146 6.736 9.211 8.39a3.672 3.672 0 01-.129.381s-5.206-8.655-9.446-8.768-1.454-5.269 3.21-10.479z" opacity=".1"/><path data-name="Path 135" d="M86.367 194.139c0 1.086.122 1.966.271 1.966s.271-.88.271-1.966-.152-.576-.3-.576-.242-.516-.242.576z" fill="#ffd037"/><path data-name="Path 136" d="M84.861 195.436c.953.52 1.784.834 1.857.7s-.642-.662-1.6-1.182-.576-.142-.662 0-.552-.037.405.482z" fill="#ffd037"/><ellipse data-name="Ellipse 58" cx="24.691" cy="3.79" rx="24.691" ry="3.79" transform="translate(72.3 225.503)" fill="#d05c76" opacity=".1"/><path data-name="Path 137" d="M109.702 205.296l-.119.963-.166 1.364-.066.566-.169 1.364-.07.569-.165 1.36-1.873 15.49c-.169 1.383-2.429 2.459-5.153 2.459h-9.837c-2.727 0-4.965-1.076-5.15-2.459l-1.893-15.49-.165-1.36-.069-.569-.169-1.364-.066-.566-.165-1.364-.119-.963c-.1-.781 1.125-1.443 2.671-1.443h20.077c1.537 0 2.762.662 2.666 1.443z" fill="#65617d"/><path data-name="Path 138" d="M109.582 206.259l-.165 1.36H84.57l-.165-1.36z" fill="#9d9cb5"/><path data-name="Path 139" d="M109.351 208.189l-.165 1.364h-24.38l-.169-1.364z" fill="#9d9cb5"/><path data-name="Path 140" d="M109.112 210.119l-.165 1.364H85.044l-.165-1.364z" fill="#9d9cb5"/></g></svg>